%TF.GenerationSoftware,KiCad,Pcbnew,9.0.1*%
%TF.CreationDate,2025-10-20T03:30:54+02:00*%
%TF.ProjectId,GOG,474f472e-6b69-4636-9164-5f7063625858,rev?*%
%TF.SameCoordinates,Original*%
%TF.FileFunction,Paste,Top*%
%TF.FilePolarity,Positive*%
%FSLAX46Y46*%
G04 Gerber Fmt 4.6, Leading zero omitted, Abs format (unit mm)*
G04 Created by KiCad (PCBNEW 9.0.1) date 2025-10-20 03:30:54*
%MOMM*%
%LPD*%
G01*
G04 APERTURE LIST*
G04 Aperture macros list*
%AMRoundRect*
0 Rectangle with rounded corners*
0 $1 Rounding radius*
0 $2 $3 $4 $5 $6 $7 $8 $9 X,Y pos of 4 corners*
0 Add a 4 corners polygon primitive as box body*
4,1,4,$2,$3,$4,$5,$6,$7,$8,$9,$2,$3,0*
0 Add four circle primitives for the rounded corners*
1,1,$1+$1,$2,$3*
1,1,$1+$1,$4,$5*
1,1,$1+$1,$6,$7*
1,1,$1+$1,$8,$9*
0 Add four rect primitives between the rounded corners*
20,1,$1+$1,$2,$3,$4,$5,0*
20,1,$1+$1,$4,$5,$6,$7,0*
20,1,$1+$1,$6,$7,$8,$9,0*
20,1,$1+$1,$8,$9,$2,$3,0*%
G04 Aperture macros list end*
%ADD10C,0.010000*%
%ADD11RoundRect,0.200000X0.200000X0.275000X-0.200000X0.275000X-0.200000X-0.275000X0.200000X-0.275000X0*%
%ADD12RoundRect,0.225000X-0.225000X-0.250000X0.225000X-0.250000X0.225000X0.250000X-0.225000X0.250000X0*%
%ADD13RoundRect,0.250000X-0.350000X-0.450000X0.350000X-0.450000X0.350000X0.450000X-0.350000X0.450000X0*%
%ADD14RoundRect,0.200000X-0.275000X0.200000X-0.275000X-0.200000X0.275000X-0.200000X0.275000X0.200000X0*%
%ADD15RoundRect,0.250000X0.250000X0.475000X-0.250000X0.475000X-0.250000X-0.475000X0.250000X-0.475000X0*%
%ADD16RoundRect,0.150000X0.150000X-0.587500X0.150000X0.587500X-0.150000X0.587500X-0.150000X-0.587500X0*%
%ADD17RoundRect,0.140000X-0.140000X-0.170000X0.140000X-0.170000X0.140000X0.170000X-0.140000X0.170000X0*%
%ADD18RoundRect,0.218750X-0.256250X0.218750X-0.256250X-0.218750X0.256250X-0.218750X0.256250X0.218750X0*%
%ADD19RoundRect,0.135000X-0.185000X0.135000X-0.185000X-0.135000X0.185000X-0.135000X0.185000X0.135000X0*%
%ADD20RoundRect,0.140000X-0.170000X0.140000X-0.170000X-0.140000X0.170000X-0.140000X0.170000X0.140000X0*%
%ADD21RoundRect,0.218750X0.256250X-0.218750X0.256250X0.218750X-0.256250X0.218750X-0.256250X-0.218750X0*%
%ADD22RoundRect,0.135000X0.135000X0.185000X-0.135000X0.185000X-0.135000X-0.185000X0.135000X-0.185000X0*%
%ADD23RoundRect,0.250000X-0.250000X-0.475000X0.250000X-0.475000X0.250000X0.475000X-0.250000X0.475000X0*%
%ADD24RoundRect,0.225000X-0.225000X-0.375000X0.225000X-0.375000X0.225000X0.375000X-0.225000X0.375000X0*%
%ADD25RoundRect,0.250000X0.450000X-0.350000X0.450000X0.350000X-0.450000X0.350000X-0.450000X-0.350000X0*%
%ADD26RoundRect,0.140000X0.170000X-0.140000X0.170000X0.140000X-0.170000X0.140000X-0.170000X-0.140000X0*%
%ADD27RoundRect,0.135000X0.185000X-0.135000X0.185000X0.135000X-0.185000X0.135000X-0.185000X-0.135000X0*%
%ADD28RoundRect,0.250000X0.350000X0.450000X-0.350000X0.450000X-0.350000X-0.450000X0.350000X-0.450000X0*%
%ADD29RoundRect,0.218750X0.218750X0.256250X-0.218750X0.256250X-0.218750X-0.256250X0.218750X-0.256250X0*%
%ADD30R,1.400000X1.600000*%
%ADD31RoundRect,0.150000X-0.150000X0.587500X-0.150000X-0.587500X0.150000X-0.587500X0.150000X0.587500X0*%
%ADD32RoundRect,0.250000X1.000000X-0.650000X1.000000X0.650000X-1.000000X0.650000X-1.000000X-0.650000X0*%
%ADD33RoundRect,0.200000X0.275000X-0.200000X0.275000X0.200000X-0.275000X0.200000X-0.275000X-0.200000X0*%
%ADD34R,0.580000X0.720000*%
%ADD35R,0.720000X0.580000*%
%ADD36RoundRect,0.225000X0.225000X0.250000X-0.225000X0.250000X-0.225000X-0.250000X0.225000X-0.250000X0*%
%ADD37RoundRect,0.250000X0.300000X1.600000X-0.300000X1.600000X-0.300000X-1.600000X0.300000X-1.600000X0*%
%ADD38RoundRect,0.317500X-0.317500X1.157500X-0.317500X-1.157500X0.317500X-1.157500X0.317500X1.157500X0*%
%ADD39RoundRect,0.150000X0.512500X0.150000X-0.512500X0.150000X-0.512500X-0.150000X0.512500X-0.150000X0*%
%ADD40RoundRect,0.150000X0.425000X-0.150000X0.425000X0.150000X-0.425000X0.150000X-0.425000X-0.150000X0*%
%ADD41RoundRect,0.075000X0.500000X-0.075000X0.500000X0.075000X-0.500000X0.075000X-0.500000X-0.075000X0*%
%ADD42O,2.100000X1.000000*%
%ADD43O,1.800000X1.000000*%
%ADD44RoundRect,0.225000X-0.250000X0.225000X-0.250000X-0.225000X0.250000X-0.225000X0.250000X0.225000X0*%
%ADD45RoundRect,0.050000X0.050000X-0.250000X0.050000X0.250000X-0.050000X0.250000X-0.050000X-0.250000X0*%
%ADD46RoundRect,0.050000X0.250000X-0.050000X0.250000X0.050000X-0.250000X0.050000X-0.250000X-0.050000X0*%
%ADD47RoundRect,0.050000X0.050000X-0.300000X0.050000X0.300000X-0.050000X0.300000X-0.050000X-0.300000X0*%
%ADD48RoundRect,0.050000X0.050000X-0.275000X0.050000X0.275000X-0.050000X0.275000X-0.050000X-0.275000X0*%
%ADD49RoundRect,0.050000X0.050000X-0.290000X0.050000X0.290000X-0.050000X0.290000X-0.050000X-0.290000X0*%
%ADD50RoundRect,0.050000X0.450000X-0.050000X0.450000X0.050000X-0.450000X0.050000X-0.450000X-0.050000X0*%
%ADD51RoundRect,0.050000X0.425000X-0.050000X0.425000X0.050000X-0.425000X0.050000X-0.425000X-0.050000X0*%
%ADD52RoundRect,0.150000X0.150000X-0.512500X0.150000X0.512500X-0.150000X0.512500X-0.150000X-0.512500X0*%
%ADD53R,0.700000X0.700000*%
%ADD54R,1.500000X0.900000*%
G04 APERTURE END LIST*
D10*
%TO.C,U5*%
X183908000Y-123251000D02*
X183910000Y-123251000D01*
X183913000Y-123252000D01*
X183915000Y-123252000D01*
X183918000Y-123253000D01*
X183920000Y-123254000D01*
X183923000Y-123255000D01*
X183925000Y-123257000D01*
X183927000Y-123258000D01*
X183929000Y-123260000D01*
X183931000Y-123261000D01*
X183933000Y-123263000D01*
X183935000Y-123265000D01*
X183937000Y-123267000D01*
X183939000Y-123269000D01*
X183940000Y-123271000D01*
X183942000Y-123273000D01*
X183943000Y-123275000D01*
X183945000Y-123277000D01*
X183946000Y-123280000D01*
X183947000Y-123282000D01*
X183948000Y-123285000D01*
X183948000Y-123287000D01*
X183949000Y-123290000D01*
X183949000Y-123292000D01*
X183950000Y-123295000D01*
X183950000Y-123297000D01*
X183950000Y-123300000D01*
X183950000Y-124150000D01*
X183950000Y-124153000D01*
X183950000Y-124155000D01*
X183949000Y-124158000D01*
X183949000Y-124160000D01*
X183948000Y-124163000D01*
X183948000Y-124165000D01*
X183947000Y-124168000D01*
X183946000Y-124170000D01*
X183945000Y-124173000D01*
X183943000Y-124175000D01*
X183942000Y-124177000D01*
X183940000Y-124179000D01*
X183939000Y-124181000D01*
X183937000Y-124183000D01*
X183935000Y-124185000D01*
X183933000Y-124187000D01*
X183931000Y-124189000D01*
X183929000Y-124190000D01*
X183927000Y-124192000D01*
X183925000Y-124193000D01*
X183923000Y-124195000D01*
X183920000Y-124196000D01*
X183918000Y-124197000D01*
X183915000Y-124198000D01*
X183913000Y-124198000D01*
X183910000Y-124199000D01*
X183908000Y-124199000D01*
X183905000Y-124200000D01*
X183903000Y-124200000D01*
X183900000Y-124200000D01*
X183300000Y-124200000D01*
X183297000Y-124200000D01*
X183295000Y-124200000D01*
X183292000Y-124199000D01*
X183290000Y-124199000D01*
X183287000Y-124198000D01*
X183285000Y-124198000D01*
X183282000Y-124197000D01*
X183280000Y-124196000D01*
X183277000Y-124195000D01*
X183275000Y-124193000D01*
X183273000Y-124192000D01*
X183271000Y-124190000D01*
X183269000Y-124189000D01*
X183267000Y-124187000D01*
X183265000Y-124185000D01*
X183263000Y-124183000D01*
X183261000Y-124181000D01*
X183260000Y-124179000D01*
X183258000Y-124177000D01*
X183257000Y-124175000D01*
X183255000Y-124173000D01*
X183254000Y-124170000D01*
X183253000Y-124168000D01*
X183252000Y-124165000D01*
X183252000Y-124163000D01*
X183251000Y-124160000D01*
X183251000Y-124158000D01*
X183250000Y-124155000D01*
X183250000Y-124153000D01*
X183250000Y-124150000D01*
X183250000Y-124050000D01*
X183250000Y-124047000D01*
X183250000Y-124045000D01*
X183251000Y-124042000D01*
X183251000Y-124040000D01*
X183252000Y-124037000D01*
X183252000Y-124035000D01*
X183253000Y-124032000D01*
X183254000Y-124030000D01*
X183255000Y-124027000D01*
X183257000Y-124025000D01*
X183258000Y-124023000D01*
X183260000Y-124021000D01*
X183261000Y-124019000D01*
X183263000Y-124017000D01*
X183265000Y-124015000D01*
X183267000Y-124013000D01*
X183269000Y-124011000D01*
X183271000Y-124010000D01*
X183273000Y-124008000D01*
X183275000Y-124007000D01*
X183277000Y-124005000D01*
X183280000Y-124004000D01*
X183282000Y-124003000D01*
X183285000Y-124002000D01*
X183287000Y-124002000D01*
X183290000Y-124001000D01*
X183292000Y-124001000D01*
X183295000Y-124000000D01*
X183297000Y-124000000D01*
X183300000Y-124000000D01*
X183750000Y-124000000D01*
X183750000Y-123300000D01*
X183750000Y-123297000D01*
X183750000Y-123295000D01*
X183751000Y-123292000D01*
X183751000Y-123290000D01*
X183752000Y-123287000D01*
X183752000Y-123285000D01*
X183753000Y-123282000D01*
X183754000Y-123280000D01*
X183755000Y-123277000D01*
X183757000Y-123275000D01*
X183758000Y-123273000D01*
X183760000Y-123271000D01*
X183761000Y-123269000D01*
X183763000Y-123267000D01*
X183765000Y-123265000D01*
X183767000Y-123263000D01*
X183769000Y-123261000D01*
X183771000Y-123260000D01*
X183773000Y-123258000D01*
X183775000Y-123257000D01*
X183777000Y-123255000D01*
X183780000Y-123254000D01*
X183782000Y-123253000D01*
X183785000Y-123252000D01*
X183787000Y-123252000D01*
X183790000Y-123251000D01*
X183792000Y-123251000D01*
X183795000Y-123250000D01*
X183797000Y-123250000D01*
X183800000Y-123250000D01*
X183900000Y-123250000D01*
X183903000Y-123250000D01*
X183905000Y-123250000D01*
X183908000Y-123251000D01*
G36*
X183908000Y-123251000D02*
G01*
X183910000Y-123251000D01*
X183913000Y-123252000D01*
X183915000Y-123252000D01*
X183918000Y-123253000D01*
X183920000Y-123254000D01*
X183923000Y-123255000D01*
X183925000Y-123257000D01*
X183927000Y-123258000D01*
X183929000Y-123260000D01*
X183931000Y-123261000D01*
X183933000Y-123263000D01*
X183935000Y-123265000D01*
X183937000Y-123267000D01*
X183939000Y-123269000D01*
X183940000Y-123271000D01*
X183942000Y-123273000D01*
X183943000Y-123275000D01*
X183945000Y-123277000D01*
X183946000Y-123280000D01*
X183947000Y-123282000D01*
X183948000Y-123285000D01*
X183948000Y-123287000D01*
X183949000Y-123290000D01*
X183949000Y-123292000D01*
X183950000Y-123295000D01*
X183950000Y-123297000D01*
X183950000Y-123300000D01*
X183950000Y-124150000D01*
X183950000Y-124153000D01*
X183950000Y-124155000D01*
X183949000Y-124158000D01*
X183949000Y-124160000D01*
X183948000Y-124163000D01*
X183948000Y-124165000D01*
X183947000Y-124168000D01*
X183946000Y-124170000D01*
X183945000Y-124173000D01*
X183943000Y-124175000D01*
X183942000Y-124177000D01*
X183940000Y-124179000D01*
X183939000Y-124181000D01*
X183937000Y-124183000D01*
X183935000Y-124185000D01*
X183933000Y-124187000D01*
X183931000Y-124189000D01*
X183929000Y-124190000D01*
X183927000Y-124192000D01*
X183925000Y-124193000D01*
X183923000Y-124195000D01*
X183920000Y-124196000D01*
X183918000Y-124197000D01*
X183915000Y-124198000D01*
X183913000Y-124198000D01*
X183910000Y-124199000D01*
X183908000Y-124199000D01*
X183905000Y-124200000D01*
X183903000Y-124200000D01*
X183900000Y-124200000D01*
X183300000Y-124200000D01*
X183297000Y-124200000D01*
X183295000Y-124200000D01*
X183292000Y-124199000D01*
X183290000Y-124199000D01*
X183287000Y-124198000D01*
X183285000Y-124198000D01*
X183282000Y-124197000D01*
X183280000Y-124196000D01*
X183277000Y-124195000D01*
X183275000Y-124193000D01*
X183273000Y-124192000D01*
X183271000Y-124190000D01*
X183269000Y-124189000D01*
X183267000Y-124187000D01*
X183265000Y-124185000D01*
X183263000Y-124183000D01*
X183261000Y-124181000D01*
X183260000Y-124179000D01*
X183258000Y-124177000D01*
X183257000Y-124175000D01*
X183255000Y-124173000D01*
X183254000Y-124170000D01*
X183253000Y-124168000D01*
X183252000Y-124165000D01*
X183252000Y-124163000D01*
X183251000Y-124160000D01*
X183251000Y-124158000D01*
X183250000Y-124155000D01*
X183250000Y-124153000D01*
X183250000Y-124150000D01*
X183250000Y-124050000D01*
X183250000Y-124047000D01*
X183250000Y-124045000D01*
X183251000Y-124042000D01*
X183251000Y-124040000D01*
X183252000Y-124037000D01*
X183252000Y-124035000D01*
X183253000Y-124032000D01*
X183254000Y-124030000D01*
X183255000Y-124027000D01*
X183257000Y-124025000D01*
X183258000Y-124023000D01*
X183260000Y-124021000D01*
X183261000Y-124019000D01*
X183263000Y-124017000D01*
X183265000Y-124015000D01*
X183267000Y-124013000D01*
X183269000Y-124011000D01*
X183271000Y-124010000D01*
X183273000Y-124008000D01*
X183275000Y-124007000D01*
X183277000Y-124005000D01*
X183280000Y-124004000D01*
X183282000Y-124003000D01*
X183285000Y-124002000D01*
X183287000Y-124002000D01*
X183290000Y-124001000D01*
X183292000Y-124001000D01*
X183295000Y-124000000D01*
X183297000Y-124000000D01*
X183300000Y-124000000D01*
X183750000Y-124000000D01*
X183750000Y-123300000D01*
X183750000Y-123297000D01*
X183750000Y-123295000D01*
X183751000Y-123292000D01*
X183751000Y-123290000D01*
X183752000Y-123287000D01*
X183752000Y-123285000D01*
X183753000Y-123282000D01*
X183754000Y-123280000D01*
X183755000Y-123277000D01*
X183757000Y-123275000D01*
X183758000Y-123273000D01*
X183760000Y-123271000D01*
X183761000Y-123269000D01*
X183763000Y-123267000D01*
X183765000Y-123265000D01*
X183767000Y-123263000D01*
X183769000Y-123261000D01*
X183771000Y-123260000D01*
X183773000Y-123258000D01*
X183775000Y-123257000D01*
X183777000Y-123255000D01*
X183780000Y-123254000D01*
X183782000Y-123253000D01*
X183785000Y-123252000D01*
X183787000Y-123252000D01*
X183790000Y-123251000D01*
X183792000Y-123251000D01*
X183795000Y-123250000D01*
X183797000Y-123250000D01*
X183800000Y-123250000D01*
X183900000Y-123250000D01*
X183903000Y-123250000D01*
X183905000Y-123250000D01*
X183908000Y-123251000D01*
G37*
X183908000Y-126701000D02*
X183910000Y-126701000D01*
X183913000Y-126702000D01*
X183915000Y-126702000D01*
X183918000Y-126703000D01*
X183920000Y-126704000D01*
X183923000Y-126705000D01*
X183925000Y-126707000D01*
X183927000Y-126708000D01*
X183929000Y-126710000D01*
X183931000Y-126711000D01*
X183933000Y-126713000D01*
X183935000Y-126715000D01*
X183937000Y-126717000D01*
X183939000Y-126719000D01*
X183940000Y-126721000D01*
X183942000Y-126723000D01*
X183943000Y-126725000D01*
X183945000Y-126727000D01*
X183946000Y-126730000D01*
X183947000Y-126732000D01*
X183948000Y-126735000D01*
X183948000Y-126737000D01*
X183949000Y-126740000D01*
X183949000Y-126742000D01*
X183950000Y-126745000D01*
X183950000Y-126747000D01*
X183950000Y-126750000D01*
X183950000Y-127600000D01*
X183950000Y-127603000D01*
X183950000Y-127605000D01*
X183949000Y-127608000D01*
X183949000Y-127610000D01*
X183948000Y-127613000D01*
X183948000Y-127615000D01*
X183947000Y-127618000D01*
X183946000Y-127620000D01*
X183945000Y-127623000D01*
X183943000Y-127625000D01*
X183942000Y-127627000D01*
X183940000Y-127629000D01*
X183939000Y-127631000D01*
X183937000Y-127633000D01*
X183935000Y-127635000D01*
X183933000Y-127637000D01*
X183931000Y-127639000D01*
X183929000Y-127640000D01*
X183927000Y-127642000D01*
X183925000Y-127643000D01*
X183923000Y-127645000D01*
X183920000Y-127646000D01*
X183918000Y-127647000D01*
X183915000Y-127648000D01*
X183913000Y-127648000D01*
X183910000Y-127649000D01*
X183908000Y-127649000D01*
X183905000Y-127650000D01*
X183903000Y-127650000D01*
X183900000Y-127650000D01*
X183800000Y-127650000D01*
X183797000Y-127650000D01*
X183795000Y-127650000D01*
X183792000Y-127649000D01*
X183790000Y-127649000D01*
X183787000Y-127648000D01*
X183785000Y-127648000D01*
X183782000Y-127647000D01*
X183780000Y-127646000D01*
X183777000Y-127645000D01*
X183775000Y-127643000D01*
X183773000Y-127642000D01*
X183771000Y-127640000D01*
X183769000Y-127639000D01*
X183767000Y-127637000D01*
X183765000Y-127635000D01*
X183763000Y-127633000D01*
X183761000Y-127631000D01*
X183760000Y-127629000D01*
X183758000Y-127627000D01*
X183757000Y-127625000D01*
X183755000Y-127623000D01*
X183754000Y-127620000D01*
X183753000Y-127618000D01*
X183752000Y-127615000D01*
X183752000Y-127613000D01*
X183751000Y-127610000D01*
X183751000Y-127608000D01*
X183750000Y-127605000D01*
X183750000Y-127603000D01*
X183750000Y-127600000D01*
X183750000Y-126900000D01*
X183300000Y-126900000D01*
X183297000Y-126900000D01*
X183295000Y-126900000D01*
X183292000Y-126899000D01*
X183290000Y-126899000D01*
X183287000Y-126898000D01*
X183285000Y-126898000D01*
X183282000Y-126897000D01*
X183280000Y-126896000D01*
X183277000Y-126895000D01*
X183275000Y-126893000D01*
X183273000Y-126892000D01*
X183271000Y-126890000D01*
X183269000Y-126889000D01*
X183267000Y-126887000D01*
X183265000Y-126885000D01*
X183263000Y-126883000D01*
X183261000Y-126881000D01*
X183260000Y-126879000D01*
X183258000Y-126877000D01*
X183257000Y-126875000D01*
X183255000Y-126873000D01*
X183254000Y-126870000D01*
X183253000Y-126868000D01*
X183252000Y-126865000D01*
X183252000Y-126863000D01*
X183251000Y-126860000D01*
X183251000Y-126858000D01*
X183250000Y-126855000D01*
X183250000Y-126853000D01*
X183250000Y-126850000D01*
X183250000Y-126750000D01*
X183250000Y-126747000D01*
X183250000Y-126745000D01*
X183251000Y-126742000D01*
X183251000Y-126740000D01*
X183252000Y-126737000D01*
X183252000Y-126735000D01*
X183253000Y-126732000D01*
X183254000Y-126730000D01*
X183255000Y-126727000D01*
X183257000Y-126725000D01*
X183258000Y-126723000D01*
X183260000Y-126721000D01*
X183261000Y-126719000D01*
X183263000Y-126717000D01*
X183265000Y-126715000D01*
X183267000Y-126713000D01*
X183269000Y-126711000D01*
X183271000Y-126710000D01*
X183273000Y-126708000D01*
X183275000Y-126707000D01*
X183277000Y-126705000D01*
X183280000Y-126704000D01*
X183282000Y-126703000D01*
X183285000Y-126702000D01*
X183287000Y-126702000D01*
X183290000Y-126701000D01*
X183292000Y-126701000D01*
X183295000Y-126700000D01*
X183297000Y-126700000D01*
X183300000Y-126700000D01*
X183900000Y-126700000D01*
X183903000Y-126700000D01*
X183905000Y-126700000D01*
X183908000Y-126701000D01*
G36*
X183908000Y-126701000D02*
G01*
X183910000Y-126701000D01*
X183913000Y-126702000D01*
X183915000Y-126702000D01*
X183918000Y-126703000D01*
X183920000Y-126704000D01*
X183923000Y-126705000D01*
X183925000Y-126707000D01*
X183927000Y-126708000D01*
X183929000Y-126710000D01*
X183931000Y-126711000D01*
X183933000Y-126713000D01*
X183935000Y-126715000D01*
X183937000Y-126717000D01*
X183939000Y-126719000D01*
X183940000Y-126721000D01*
X183942000Y-126723000D01*
X183943000Y-126725000D01*
X183945000Y-126727000D01*
X183946000Y-126730000D01*
X183947000Y-126732000D01*
X183948000Y-126735000D01*
X183948000Y-126737000D01*
X183949000Y-126740000D01*
X183949000Y-126742000D01*
X183950000Y-126745000D01*
X183950000Y-126747000D01*
X183950000Y-126750000D01*
X183950000Y-127600000D01*
X183950000Y-127603000D01*
X183950000Y-127605000D01*
X183949000Y-127608000D01*
X183949000Y-127610000D01*
X183948000Y-127613000D01*
X183948000Y-127615000D01*
X183947000Y-127618000D01*
X183946000Y-127620000D01*
X183945000Y-127623000D01*
X183943000Y-127625000D01*
X183942000Y-127627000D01*
X183940000Y-127629000D01*
X183939000Y-127631000D01*
X183937000Y-127633000D01*
X183935000Y-127635000D01*
X183933000Y-127637000D01*
X183931000Y-127639000D01*
X183929000Y-127640000D01*
X183927000Y-127642000D01*
X183925000Y-127643000D01*
X183923000Y-127645000D01*
X183920000Y-127646000D01*
X183918000Y-127647000D01*
X183915000Y-127648000D01*
X183913000Y-127648000D01*
X183910000Y-127649000D01*
X183908000Y-127649000D01*
X183905000Y-127650000D01*
X183903000Y-127650000D01*
X183900000Y-127650000D01*
X183800000Y-127650000D01*
X183797000Y-127650000D01*
X183795000Y-127650000D01*
X183792000Y-127649000D01*
X183790000Y-127649000D01*
X183787000Y-127648000D01*
X183785000Y-127648000D01*
X183782000Y-127647000D01*
X183780000Y-127646000D01*
X183777000Y-127645000D01*
X183775000Y-127643000D01*
X183773000Y-127642000D01*
X183771000Y-127640000D01*
X183769000Y-127639000D01*
X183767000Y-127637000D01*
X183765000Y-127635000D01*
X183763000Y-127633000D01*
X183761000Y-127631000D01*
X183760000Y-127629000D01*
X183758000Y-127627000D01*
X183757000Y-127625000D01*
X183755000Y-127623000D01*
X183754000Y-127620000D01*
X183753000Y-127618000D01*
X183752000Y-127615000D01*
X183752000Y-127613000D01*
X183751000Y-127610000D01*
X183751000Y-127608000D01*
X183750000Y-127605000D01*
X183750000Y-127603000D01*
X183750000Y-127600000D01*
X183750000Y-126900000D01*
X183300000Y-126900000D01*
X183297000Y-126900000D01*
X183295000Y-126900000D01*
X183292000Y-126899000D01*
X183290000Y-126899000D01*
X183287000Y-126898000D01*
X183285000Y-126898000D01*
X183282000Y-126897000D01*
X183280000Y-126896000D01*
X183277000Y-126895000D01*
X183275000Y-126893000D01*
X183273000Y-126892000D01*
X183271000Y-126890000D01*
X183269000Y-126889000D01*
X183267000Y-126887000D01*
X183265000Y-126885000D01*
X183263000Y-126883000D01*
X183261000Y-126881000D01*
X183260000Y-126879000D01*
X183258000Y-126877000D01*
X183257000Y-126875000D01*
X183255000Y-126873000D01*
X183254000Y-126870000D01*
X183253000Y-126868000D01*
X183252000Y-126865000D01*
X183252000Y-126863000D01*
X183251000Y-126860000D01*
X183251000Y-126858000D01*
X183250000Y-126855000D01*
X183250000Y-126853000D01*
X183250000Y-126850000D01*
X183250000Y-126750000D01*
X183250000Y-126747000D01*
X183250000Y-126745000D01*
X183251000Y-126742000D01*
X183251000Y-126740000D01*
X183252000Y-126737000D01*
X183252000Y-126735000D01*
X183253000Y-126732000D01*
X183254000Y-126730000D01*
X183255000Y-126727000D01*
X183257000Y-126725000D01*
X183258000Y-126723000D01*
X183260000Y-126721000D01*
X183261000Y-126719000D01*
X183263000Y-126717000D01*
X183265000Y-126715000D01*
X183267000Y-126713000D01*
X183269000Y-126711000D01*
X183271000Y-126710000D01*
X183273000Y-126708000D01*
X183275000Y-126707000D01*
X183277000Y-126705000D01*
X183280000Y-126704000D01*
X183282000Y-126703000D01*
X183285000Y-126702000D01*
X183287000Y-126702000D01*
X183290000Y-126701000D01*
X183292000Y-126701000D01*
X183295000Y-126700000D01*
X183297000Y-126700000D01*
X183300000Y-126700000D01*
X183900000Y-126700000D01*
X183903000Y-126700000D01*
X183905000Y-126700000D01*
X183908000Y-126701000D01*
G37*
X187108000Y-123251000D02*
X187110000Y-123251000D01*
X187113000Y-123252000D01*
X187115000Y-123252000D01*
X187118000Y-123253000D01*
X187120000Y-123254000D01*
X187123000Y-123255000D01*
X187125000Y-123257000D01*
X187127000Y-123258000D01*
X187129000Y-123260000D01*
X187131000Y-123261000D01*
X187133000Y-123263000D01*
X187135000Y-123265000D01*
X187137000Y-123267000D01*
X187139000Y-123269000D01*
X187140000Y-123271000D01*
X187142000Y-123273000D01*
X187143000Y-123275000D01*
X187145000Y-123277000D01*
X187146000Y-123280000D01*
X187147000Y-123282000D01*
X187148000Y-123285000D01*
X187148000Y-123287000D01*
X187149000Y-123290000D01*
X187149000Y-123292000D01*
X187150000Y-123295000D01*
X187150000Y-123297000D01*
X187150000Y-123300000D01*
X187150000Y-123950000D01*
X187600000Y-123950000D01*
X187603000Y-123950000D01*
X187605000Y-123950000D01*
X187608000Y-123951000D01*
X187610000Y-123951000D01*
X187613000Y-123952000D01*
X187615000Y-123952000D01*
X187618000Y-123953000D01*
X187620000Y-123954000D01*
X187623000Y-123955000D01*
X187625000Y-123957000D01*
X187627000Y-123958000D01*
X187629000Y-123960000D01*
X187631000Y-123961000D01*
X187633000Y-123963000D01*
X187635000Y-123965000D01*
X187637000Y-123967000D01*
X187639000Y-123969000D01*
X187640000Y-123971000D01*
X187642000Y-123973000D01*
X187643000Y-123975000D01*
X187645000Y-123977000D01*
X187646000Y-123980000D01*
X187647000Y-123982000D01*
X187648000Y-123985000D01*
X187648000Y-123987000D01*
X187649000Y-123990000D01*
X187649000Y-123992000D01*
X187650000Y-123995000D01*
X187650000Y-123997000D01*
X187650000Y-124000000D01*
X187650000Y-124100000D01*
X187650000Y-124103000D01*
X187650000Y-124105000D01*
X187649000Y-124108000D01*
X187649000Y-124110000D01*
X187648000Y-124113000D01*
X187648000Y-124115000D01*
X187647000Y-124118000D01*
X187646000Y-124120000D01*
X187645000Y-124123000D01*
X187643000Y-124125000D01*
X187642000Y-124127000D01*
X187640000Y-124129000D01*
X187639000Y-124131000D01*
X187637000Y-124133000D01*
X187635000Y-124135000D01*
X187633000Y-124137000D01*
X187631000Y-124139000D01*
X187629000Y-124140000D01*
X187627000Y-124142000D01*
X187625000Y-124143000D01*
X187623000Y-124145000D01*
X187620000Y-124146000D01*
X187618000Y-124147000D01*
X187615000Y-124148000D01*
X187613000Y-124148000D01*
X187610000Y-124149000D01*
X187608000Y-124149000D01*
X187605000Y-124150000D01*
X187603000Y-124150000D01*
X187600000Y-124150000D01*
X187000000Y-124150000D01*
X186997000Y-124150000D01*
X186995000Y-124150000D01*
X186992000Y-124149000D01*
X186990000Y-124149000D01*
X186987000Y-124148000D01*
X186985000Y-124148000D01*
X186982000Y-124147000D01*
X186980000Y-124146000D01*
X186977000Y-124145000D01*
X186975000Y-124143000D01*
X186973000Y-124142000D01*
X186971000Y-124140000D01*
X186969000Y-124139000D01*
X186967000Y-124137000D01*
X186965000Y-124135000D01*
X186963000Y-124133000D01*
X186961000Y-124131000D01*
X186960000Y-124129000D01*
X186958000Y-124127000D01*
X186957000Y-124125000D01*
X186955000Y-124123000D01*
X186954000Y-124120000D01*
X186953000Y-124118000D01*
X186952000Y-124115000D01*
X186952000Y-124113000D01*
X186951000Y-124110000D01*
X186951000Y-124108000D01*
X186950000Y-124105000D01*
X186950000Y-124103000D01*
X186950000Y-124100000D01*
X186950000Y-123300000D01*
X186950000Y-123297000D01*
X186950000Y-123295000D01*
X186951000Y-123292000D01*
X186951000Y-123290000D01*
X186952000Y-123287000D01*
X186952000Y-123285000D01*
X186953000Y-123282000D01*
X186954000Y-123280000D01*
X186955000Y-123277000D01*
X186957000Y-123275000D01*
X186958000Y-123273000D01*
X186960000Y-123271000D01*
X186961000Y-123269000D01*
X186963000Y-123267000D01*
X186965000Y-123265000D01*
X186967000Y-123263000D01*
X186969000Y-123261000D01*
X186971000Y-123260000D01*
X186973000Y-123258000D01*
X186975000Y-123257000D01*
X186977000Y-123255000D01*
X186980000Y-123254000D01*
X186982000Y-123253000D01*
X186985000Y-123252000D01*
X186987000Y-123252000D01*
X186990000Y-123251000D01*
X186992000Y-123251000D01*
X186995000Y-123250000D01*
X186997000Y-123250000D01*
X187000000Y-123250000D01*
X187100000Y-123250000D01*
X187103000Y-123250000D01*
X187105000Y-123250000D01*
X187108000Y-123251000D01*
G36*
X187108000Y-123251000D02*
G01*
X187110000Y-123251000D01*
X187113000Y-123252000D01*
X187115000Y-123252000D01*
X187118000Y-123253000D01*
X187120000Y-123254000D01*
X187123000Y-123255000D01*
X187125000Y-123257000D01*
X187127000Y-123258000D01*
X187129000Y-123260000D01*
X187131000Y-123261000D01*
X187133000Y-123263000D01*
X187135000Y-123265000D01*
X187137000Y-123267000D01*
X187139000Y-123269000D01*
X187140000Y-123271000D01*
X187142000Y-123273000D01*
X187143000Y-123275000D01*
X187145000Y-123277000D01*
X187146000Y-123280000D01*
X187147000Y-123282000D01*
X187148000Y-123285000D01*
X187148000Y-123287000D01*
X187149000Y-123290000D01*
X187149000Y-123292000D01*
X187150000Y-123295000D01*
X187150000Y-123297000D01*
X187150000Y-123300000D01*
X187150000Y-123950000D01*
X187600000Y-123950000D01*
X187603000Y-123950000D01*
X187605000Y-123950000D01*
X187608000Y-123951000D01*
X187610000Y-123951000D01*
X187613000Y-123952000D01*
X187615000Y-123952000D01*
X187618000Y-123953000D01*
X187620000Y-123954000D01*
X187623000Y-123955000D01*
X187625000Y-123957000D01*
X187627000Y-123958000D01*
X187629000Y-123960000D01*
X187631000Y-123961000D01*
X187633000Y-123963000D01*
X187635000Y-123965000D01*
X187637000Y-123967000D01*
X187639000Y-123969000D01*
X187640000Y-123971000D01*
X187642000Y-123973000D01*
X187643000Y-123975000D01*
X187645000Y-123977000D01*
X187646000Y-123980000D01*
X187647000Y-123982000D01*
X187648000Y-123985000D01*
X187648000Y-123987000D01*
X187649000Y-123990000D01*
X187649000Y-123992000D01*
X187650000Y-123995000D01*
X187650000Y-123997000D01*
X187650000Y-124000000D01*
X187650000Y-124100000D01*
X187650000Y-124103000D01*
X187650000Y-124105000D01*
X187649000Y-124108000D01*
X187649000Y-124110000D01*
X187648000Y-124113000D01*
X187648000Y-124115000D01*
X187647000Y-124118000D01*
X187646000Y-124120000D01*
X187645000Y-124123000D01*
X187643000Y-124125000D01*
X187642000Y-124127000D01*
X187640000Y-124129000D01*
X187639000Y-124131000D01*
X187637000Y-124133000D01*
X187635000Y-124135000D01*
X187633000Y-124137000D01*
X187631000Y-124139000D01*
X187629000Y-124140000D01*
X187627000Y-124142000D01*
X187625000Y-124143000D01*
X187623000Y-124145000D01*
X187620000Y-124146000D01*
X187618000Y-124147000D01*
X187615000Y-124148000D01*
X187613000Y-124148000D01*
X187610000Y-124149000D01*
X187608000Y-124149000D01*
X187605000Y-124150000D01*
X187603000Y-124150000D01*
X187600000Y-124150000D01*
X187000000Y-124150000D01*
X186997000Y-124150000D01*
X186995000Y-124150000D01*
X186992000Y-124149000D01*
X186990000Y-124149000D01*
X186987000Y-124148000D01*
X186985000Y-124148000D01*
X186982000Y-124147000D01*
X186980000Y-124146000D01*
X186977000Y-124145000D01*
X186975000Y-124143000D01*
X186973000Y-124142000D01*
X186971000Y-124140000D01*
X186969000Y-124139000D01*
X186967000Y-124137000D01*
X186965000Y-124135000D01*
X186963000Y-124133000D01*
X186961000Y-124131000D01*
X186960000Y-124129000D01*
X186958000Y-124127000D01*
X186957000Y-124125000D01*
X186955000Y-124123000D01*
X186954000Y-124120000D01*
X186953000Y-124118000D01*
X186952000Y-124115000D01*
X186952000Y-124113000D01*
X186951000Y-124110000D01*
X186951000Y-124108000D01*
X186950000Y-124105000D01*
X186950000Y-124103000D01*
X186950000Y-124100000D01*
X186950000Y-123300000D01*
X186950000Y-123297000D01*
X186950000Y-123295000D01*
X186951000Y-123292000D01*
X186951000Y-123290000D01*
X186952000Y-123287000D01*
X186952000Y-123285000D01*
X186953000Y-123282000D01*
X186954000Y-123280000D01*
X186955000Y-123277000D01*
X186957000Y-123275000D01*
X186958000Y-123273000D01*
X186960000Y-123271000D01*
X186961000Y-123269000D01*
X186963000Y-123267000D01*
X186965000Y-123265000D01*
X186967000Y-123263000D01*
X186969000Y-123261000D01*
X186971000Y-123260000D01*
X186973000Y-123258000D01*
X186975000Y-123257000D01*
X186977000Y-123255000D01*
X186980000Y-123254000D01*
X186982000Y-123253000D01*
X186985000Y-123252000D01*
X186987000Y-123252000D01*
X186990000Y-123251000D01*
X186992000Y-123251000D01*
X186995000Y-123250000D01*
X186997000Y-123250000D01*
X187000000Y-123250000D01*
X187100000Y-123250000D01*
X187103000Y-123250000D01*
X187105000Y-123250000D01*
X187108000Y-123251000D01*
G37*
X187608000Y-126751000D02*
X187610000Y-126751000D01*
X187613000Y-126752000D01*
X187615000Y-126752000D01*
X187618000Y-126753000D01*
X187620000Y-126754000D01*
X187623000Y-126755000D01*
X187625000Y-126757000D01*
X187627000Y-126758000D01*
X187629000Y-126760000D01*
X187631000Y-126761000D01*
X187633000Y-126763000D01*
X187635000Y-126765000D01*
X187637000Y-126767000D01*
X187639000Y-126769000D01*
X187640000Y-126771000D01*
X187642000Y-126773000D01*
X187643000Y-126775000D01*
X187645000Y-126777000D01*
X187646000Y-126780000D01*
X187647000Y-126782000D01*
X187648000Y-126785000D01*
X187648000Y-126787000D01*
X187649000Y-126790000D01*
X187649000Y-126792000D01*
X187650000Y-126795000D01*
X187650000Y-126797000D01*
X187650000Y-126800000D01*
X187650000Y-126900000D01*
X187650000Y-126903000D01*
X187650000Y-126905000D01*
X187649000Y-126908000D01*
X187649000Y-126910000D01*
X187648000Y-126913000D01*
X187648000Y-126915000D01*
X187647000Y-126918000D01*
X187646000Y-126920000D01*
X187645000Y-126923000D01*
X187643000Y-126925000D01*
X187642000Y-126927000D01*
X187640000Y-126929000D01*
X187639000Y-126931000D01*
X187637000Y-126933000D01*
X187635000Y-126935000D01*
X187633000Y-126937000D01*
X187631000Y-126939000D01*
X187629000Y-126940000D01*
X187627000Y-126942000D01*
X187625000Y-126943000D01*
X187623000Y-126945000D01*
X187620000Y-126946000D01*
X187618000Y-126947000D01*
X187615000Y-126948000D01*
X187613000Y-126948000D01*
X187610000Y-126949000D01*
X187608000Y-126949000D01*
X187605000Y-126950000D01*
X187603000Y-126950000D01*
X187600000Y-126950000D01*
X187150000Y-126950000D01*
X187150000Y-127600000D01*
X187150000Y-127603000D01*
X187150000Y-127605000D01*
X187149000Y-127608000D01*
X187149000Y-127610000D01*
X187148000Y-127613000D01*
X187148000Y-127615000D01*
X187147000Y-127618000D01*
X187146000Y-127620000D01*
X187145000Y-127623000D01*
X187143000Y-127625000D01*
X187142000Y-127627000D01*
X187140000Y-127629000D01*
X187139000Y-127631000D01*
X187137000Y-127633000D01*
X187135000Y-127635000D01*
X187133000Y-127637000D01*
X187131000Y-127639000D01*
X187129000Y-127640000D01*
X187127000Y-127642000D01*
X187125000Y-127643000D01*
X187123000Y-127645000D01*
X187120000Y-127646000D01*
X187118000Y-127647000D01*
X187115000Y-127648000D01*
X187113000Y-127648000D01*
X187110000Y-127649000D01*
X187108000Y-127649000D01*
X187105000Y-127650000D01*
X187103000Y-127650000D01*
X187100000Y-127650000D01*
X187000000Y-127650000D01*
X186997000Y-127650000D01*
X186995000Y-127650000D01*
X186992000Y-127649000D01*
X186990000Y-127649000D01*
X186987000Y-127648000D01*
X186985000Y-127648000D01*
X186982000Y-127647000D01*
X186980000Y-127646000D01*
X186977000Y-127645000D01*
X186975000Y-127643000D01*
X186973000Y-127642000D01*
X186971000Y-127640000D01*
X186969000Y-127639000D01*
X186967000Y-127637000D01*
X186965000Y-127635000D01*
X186963000Y-127633000D01*
X186961000Y-127631000D01*
X186960000Y-127629000D01*
X186958000Y-127627000D01*
X186957000Y-127625000D01*
X186955000Y-127623000D01*
X186954000Y-127620000D01*
X186953000Y-127618000D01*
X186952000Y-127615000D01*
X186952000Y-127613000D01*
X186951000Y-127610000D01*
X186951000Y-127608000D01*
X186950000Y-127605000D01*
X186950000Y-127603000D01*
X186950000Y-127600000D01*
X186950000Y-126800000D01*
X186950000Y-126797000D01*
X186950000Y-126795000D01*
X186951000Y-126792000D01*
X186951000Y-126790000D01*
X186952000Y-126787000D01*
X186952000Y-126785000D01*
X186953000Y-126782000D01*
X186954000Y-126780000D01*
X186955000Y-126777000D01*
X186957000Y-126775000D01*
X186958000Y-126773000D01*
X186960000Y-126771000D01*
X186961000Y-126769000D01*
X186963000Y-126767000D01*
X186965000Y-126765000D01*
X186967000Y-126763000D01*
X186969000Y-126761000D01*
X186971000Y-126760000D01*
X186973000Y-126758000D01*
X186975000Y-126757000D01*
X186977000Y-126755000D01*
X186980000Y-126754000D01*
X186982000Y-126753000D01*
X186985000Y-126752000D01*
X186987000Y-126752000D01*
X186990000Y-126751000D01*
X186992000Y-126751000D01*
X186995000Y-126750000D01*
X186997000Y-126750000D01*
X187000000Y-126750000D01*
X187600000Y-126750000D01*
X187603000Y-126750000D01*
X187605000Y-126750000D01*
X187608000Y-126751000D01*
G36*
X187608000Y-126751000D02*
G01*
X187610000Y-126751000D01*
X187613000Y-126752000D01*
X187615000Y-126752000D01*
X187618000Y-126753000D01*
X187620000Y-126754000D01*
X187623000Y-126755000D01*
X187625000Y-126757000D01*
X187627000Y-126758000D01*
X187629000Y-126760000D01*
X187631000Y-126761000D01*
X187633000Y-126763000D01*
X187635000Y-126765000D01*
X187637000Y-126767000D01*
X187639000Y-126769000D01*
X187640000Y-126771000D01*
X187642000Y-126773000D01*
X187643000Y-126775000D01*
X187645000Y-126777000D01*
X187646000Y-126780000D01*
X187647000Y-126782000D01*
X187648000Y-126785000D01*
X187648000Y-126787000D01*
X187649000Y-126790000D01*
X187649000Y-126792000D01*
X187650000Y-126795000D01*
X187650000Y-126797000D01*
X187650000Y-126800000D01*
X187650000Y-126900000D01*
X187650000Y-126903000D01*
X187650000Y-126905000D01*
X187649000Y-126908000D01*
X187649000Y-126910000D01*
X187648000Y-126913000D01*
X187648000Y-126915000D01*
X187647000Y-126918000D01*
X187646000Y-126920000D01*
X187645000Y-126923000D01*
X187643000Y-126925000D01*
X187642000Y-126927000D01*
X187640000Y-126929000D01*
X187639000Y-126931000D01*
X187637000Y-126933000D01*
X187635000Y-126935000D01*
X187633000Y-126937000D01*
X187631000Y-126939000D01*
X187629000Y-126940000D01*
X187627000Y-126942000D01*
X187625000Y-126943000D01*
X187623000Y-126945000D01*
X187620000Y-126946000D01*
X187618000Y-126947000D01*
X187615000Y-126948000D01*
X187613000Y-126948000D01*
X187610000Y-126949000D01*
X187608000Y-126949000D01*
X187605000Y-126950000D01*
X187603000Y-126950000D01*
X187600000Y-126950000D01*
X187150000Y-126950000D01*
X187150000Y-127600000D01*
X187150000Y-127603000D01*
X187150000Y-127605000D01*
X187149000Y-127608000D01*
X187149000Y-127610000D01*
X187148000Y-127613000D01*
X187148000Y-127615000D01*
X187147000Y-127618000D01*
X187146000Y-127620000D01*
X187145000Y-127623000D01*
X187143000Y-127625000D01*
X187142000Y-127627000D01*
X187140000Y-127629000D01*
X187139000Y-127631000D01*
X187137000Y-127633000D01*
X187135000Y-127635000D01*
X187133000Y-127637000D01*
X187131000Y-127639000D01*
X187129000Y-127640000D01*
X187127000Y-127642000D01*
X187125000Y-127643000D01*
X187123000Y-127645000D01*
X187120000Y-127646000D01*
X187118000Y-127647000D01*
X187115000Y-127648000D01*
X187113000Y-127648000D01*
X187110000Y-127649000D01*
X187108000Y-127649000D01*
X187105000Y-127650000D01*
X187103000Y-127650000D01*
X187100000Y-127650000D01*
X187000000Y-127650000D01*
X186997000Y-127650000D01*
X186995000Y-127650000D01*
X186992000Y-127649000D01*
X186990000Y-127649000D01*
X186987000Y-127648000D01*
X186985000Y-127648000D01*
X186982000Y-127647000D01*
X186980000Y-127646000D01*
X186977000Y-127645000D01*
X186975000Y-127643000D01*
X186973000Y-127642000D01*
X186971000Y-127640000D01*
X186969000Y-127639000D01*
X186967000Y-127637000D01*
X186965000Y-127635000D01*
X186963000Y-127633000D01*
X186961000Y-127631000D01*
X186960000Y-127629000D01*
X186958000Y-127627000D01*
X186957000Y-127625000D01*
X186955000Y-127623000D01*
X186954000Y-127620000D01*
X186953000Y-127618000D01*
X186952000Y-127615000D01*
X186952000Y-127613000D01*
X186951000Y-127610000D01*
X186951000Y-127608000D01*
X186950000Y-127605000D01*
X186950000Y-127603000D01*
X186950000Y-127600000D01*
X186950000Y-126800000D01*
X186950000Y-126797000D01*
X186950000Y-126795000D01*
X186951000Y-126792000D01*
X186951000Y-126790000D01*
X186952000Y-126787000D01*
X186952000Y-126785000D01*
X186953000Y-126782000D01*
X186954000Y-126780000D01*
X186955000Y-126777000D01*
X186957000Y-126775000D01*
X186958000Y-126773000D01*
X186960000Y-126771000D01*
X186961000Y-126769000D01*
X186963000Y-126767000D01*
X186965000Y-126765000D01*
X186967000Y-126763000D01*
X186969000Y-126761000D01*
X186971000Y-126760000D01*
X186973000Y-126758000D01*
X186975000Y-126757000D01*
X186977000Y-126755000D01*
X186980000Y-126754000D01*
X186982000Y-126753000D01*
X186985000Y-126752000D01*
X186987000Y-126752000D01*
X186990000Y-126751000D01*
X186992000Y-126751000D01*
X186995000Y-126750000D01*
X186997000Y-126750000D01*
X187000000Y-126750000D01*
X187600000Y-126750000D01*
X187603000Y-126750000D01*
X187605000Y-126750000D01*
X187608000Y-126751000D01*
G37*
%TD*%
D11*
%TO.C,R10*%
X168775000Y-133450000D03*
X167125000Y-133450000D03*
%TD*%
D12*
%TO.C,C17*%
X190500000Y-120500000D03*
X192050000Y-120500000D03*
%TD*%
D13*
%TO.C,C5*%
X149000000Y-109975000D03*
X151000000Y-109975000D03*
%TD*%
D14*
%TO.C,R6*%
X186800000Y-84675000D03*
X186800000Y-86325000D03*
%TD*%
D15*
%TO.C,C21*%
X182100000Y-120700000D03*
X180200000Y-120700000D03*
%TD*%
D16*
%TO.C,Q3*%
X195050000Y-141937500D03*
X196950000Y-141937500D03*
X196000000Y-140062500D03*
%TD*%
D17*
%TO.C,C28*%
X183870000Y-113500000D03*
X184830000Y-113500000D03*
%TD*%
D18*
%TO.C,D6*%
X181950000Y-138662500D03*
X181950000Y-140237500D03*
%TD*%
D19*
%TO.C,R16*%
X202500000Y-131990000D03*
X202500000Y-133010000D03*
%TD*%
D20*
%TO.C,C20*%
X182200000Y-123970000D03*
X182200000Y-124930000D03*
%TD*%
D21*
%TO.C,D2*%
X167950000Y-137487500D03*
X167950000Y-135912500D03*
%TD*%
D22*
%TO.C,R23*%
X189560000Y-115141250D03*
X188540000Y-115141250D03*
%TD*%
D23*
%TO.C,C14*%
X184300000Y-133700000D03*
X186200000Y-133700000D03*
%TD*%
%TO.C,C26*%
X184143902Y-116949108D03*
X186043902Y-116949108D03*
%TD*%
D16*
%TO.C,Q4*%
X189800000Y-137812500D03*
X191700000Y-137812500D03*
X190750000Y-135937500D03*
%TD*%
D24*
%TO.C,D3*%
X200350000Y-135500000D03*
X203650000Y-135500000D03*
%TD*%
D15*
%TO.C,C22*%
X182100000Y-118450000D03*
X180200000Y-118450000D03*
%TD*%
D25*
%TO.C,C6*%
X153250000Y-111975000D03*
X153250000Y-109975000D03*
%TD*%
D22*
%TO.C,R22*%
X190760000Y-117500000D03*
X189740000Y-117500000D03*
%TD*%
D15*
%TO.C,C12*%
X182150000Y-130200000D03*
X180250000Y-130200000D03*
%TD*%
D26*
%TO.C,C9*%
X182200000Y-126930000D03*
X182200000Y-125970000D03*
%TD*%
D11*
%TO.C,R1*%
X179325000Y-84750000D03*
X177675000Y-84750000D03*
%TD*%
D22*
%TO.C,R21*%
X190750000Y-118750000D03*
X189730000Y-118750000D03*
%TD*%
D27*
%TO.C,R18*%
X207250000Y-125000000D03*
X207250000Y-123980000D03*
%TD*%
D28*
%TO.C,R9*%
X151000000Y-112475000D03*
X149000000Y-112475000D03*
%TD*%
D29*
%TO.C,D1*%
X179250000Y-86500000D03*
X177675000Y-86500000D03*
%TD*%
D30*
%TO.C,SW2*%
X185500000Y-107250000D03*
X185500000Y-99250000D03*
X190000000Y-107250000D03*
X190000000Y-99250000D03*
%TD*%
D16*
%TO.C,Q5*%
X189800000Y-141875000D03*
X191700000Y-141875000D03*
X190750000Y-140000000D03*
%TD*%
D26*
%TO.C,C18*%
X190500000Y-127980000D03*
X190500000Y-127020000D03*
%TD*%
D31*
%TO.C,Q1*%
X202450000Y-137875000D03*
X200550000Y-137875000D03*
X201500000Y-139750000D03*
%TD*%
D32*
%TO.C,L1*%
X176250000Y-127550000D03*
X176250000Y-123350000D03*
%TD*%
D15*
%TO.C,C24*%
X182100000Y-113950000D03*
X180200000Y-113950000D03*
%TD*%
D33*
%TO.C,R15*%
X194300000Y-134075000D03*
X194300000Y-132425000D03*
%TD*%
D15*
%TO.C,C10*%
X182150000Y-134700000D03*
X180250000Y-134700000D03*
%TD*%
D23*
%TO.C,C31*%
X175300000Y-97500000D03*
X177200000Y-97500000D03*
%TD*%
D16*
%TO.C,Q2*%
X195050000Y-137875000D03*
X196950000Y-137875000D03*
X196000000Y-136000000D03*
%TD*%
D23*
%TO.C,C27*%
X184150000Y-120450000D03*
X186050000Y-120450000D03*
%TD*%
D34*
%TO.C,U4*%
X154025000Y-138700000D03*
X154875000Y-138700000D03*
X155925000Y-138700000D03*
X156775000Y-138700000D03*
X157825000Y-138700000D03*
X158675000Y-138700000D03*
X159725000Y-138700000D03*
X160575000Y-138700000D03*
X161625000Y-138700000D03*
X162475000Y-138700000D03*
X154025000Y-137700000D03*
X154875000Y-137700000D03*
X155925000Y-137700000D03*
X156775000Y-137700000D03*
X157825000Y-137700000D03*
X158675000Y-137700000D03*
X159725000Y-137700000D03*
X160575000Y-137700000D03*
X161625000Y-137700000D03*
X162475000Y-137700000D03*
D35*
X151150000Y-135825000D03*
X152150000Y-135825000D03*
X164350000Y-135825000D03*
X165350000Y-135825000D03*
X151150000Y-134975000D03*
X152150000Y-134975000D03*
X164350000Y-134975000D03*
X165350000Y-134975000D03*
X151150000Y-133925000D03*
X152150000Y-133925000D03*
X164350000Y-133925000D03*
X165350000Y-133925000D03*
X151150000Y-133075000D03*
X152150000Y-133075000D03*
X164350000Y-133075000D03*
X165350000Y-133075000D03*
X151150000Y-132025000D03*
X152150000Y-132025000D03*
X164350000Y-132025000D03*
X165350000Y-132025000D03*
X151150000Y-131175000D03*
X152150000Y-131175000D03*
X164350000Y-131175000D03*
X165350000Y-131175000D03*
X151150000Y-130125000D03*
X152150000Y-130125000D03*
X164350000Y-130125000D03*
X165350000Y-130125000D03*
X151150000Y-129275000D03*
X152150000Y-129275000D03*
X164350000Y-129275000D03*
X165350000Y-129275000D03*
X151150000Y-128225000D03*
X152150000Y-128225000D03*
X164350000Y-128225000D03*
X165350000Y-128225000D03*
X151150000Y-127375000D03*
X152150000Y-127375000D03*
X164350000Y-127375000D03*
X165350000Y-127375000D03*
D34*
X154025000Y-125500000D03*
X154875000Y-125500000D03*
X155925000Y-125500000D03*
X156775000Y-125500000D03*
X157825000Y-125500000D03*
X158675000Y-125500000D03*
X159725000Y-125500000D03*
X160575000Y-125500000D03*
X161625000Y-125500000D03*
X162475000Y-125500000D03*
X154025000Y-124500000D03*
X154875000Y-124500000D03*
X155925000Y-124500000D03*
X156775000Y-124500000D03*
X157825000Y-124500000D03*
X158675000Y-124500000D03*
X159725000Y-124500000D03*
X160575000Y-124500000D03*
X161625000Y-124500000D03*
X162475000Y-124500000D03*
%TD*%
D36*
%TO.C,C7*%
X156275000Y-140700000D03*
X154725000Y-140700000D03*
%TD*%
D30*
%TO.C,SW1*%
X193250000Y-107250000D03*
X193250000Y-99250000D03*
X197750000Y-107250000D03*
X197750000Y-99250000D03*
%TD*%
D24*
%TO.C,D4*%
X194150000Y-144500000D03*
X197450000Y-144500000D03*
%TD*%
%TO.C,D5*%
X189150000Y-144500000D03*
X192450000Y-144500000D03*
%TD*%
D19*
%TO.C,R19*%
X183450000Y-138940000D03*
X183450000Y-139960000D03*
%TD*%
D22*
%TO.C,R25*%
X192760000Y-117500000D03*
X191740000Y-117500000D03*
%TD*%
D36*
%TO.C,C4*%
X157025000Y-109725000D03*
X155475000Y-109725000D03*
%TD*%
D33*
%TO.C,R17*%
X189550000Y-134075000D03*
X189550000Y-132425000D03*
%TD*%
D11*
%TO.C,R14*%
X162050000Y-122450000D03*
X160400000Y-122450000D03*
%TD*%
D36*
%TO.C,C29*%
X178500000Y-106500000D03*
X176950000Y-106500000D03*
%TD*%
D37*
%TO.C,L2*%
X176500000Y-103250000D03*
X173500000Y-103250000D03*
%TD*%
D23*
%TO.C,C32*%
X175300000Y-99500000D03*
X177200000Y-99500000D03*
%TD*%
D15*
%TO.C,C25*%
X182100000Y-111700000D03*
X180200000Y-111700000D03*
%TD*%
D38*
%TO.C,U3*%
X163000000Y-91725000D03*
X161000000Y-91725000D03*
X159000000Y-91725000D03*
X157000000Y-91725000D03*
X155000000Y-91725000D03*
X153000000Y-91725000D03*
X151000000Y-91725000D03*
X149000000Y-91725000D03*
X149000000Y-106775000D03*
X151000000Y-106775000D03*
X153000000Y-106775000D03*
X155000000Y-106775000D03*
X157000000Y-106775000D03*
X159000000Y-106775000D03*
X161000000Y-106775000D03*
X163000000Y-106775000D03*
%TD*%
D14*
%TO.C,R12*%
X157250000Y-121025000D03*
X157250000Y-122675000D03*
%TD*%
D23*
%TO.C,C13*%
X184300000Y-131450000D03*
X186200000Y-131450000D03*
%TD*%
D39*
%TO.C,U6*%
X180887500Y-103450000D03*
X180887500Y-102500000D03*
X180887500Y-101550000D03*
X178612500Y-101550000D03*
X178612500Y-102500000D03*
X178612500Y-103450000D03*
%TD*%
D15*
%TO.C,C11*%
X182150000Y-132450000D03*
X180250000Y-132450000D03*
%TD*%
D36*
%TO.C,C3*%
X185775000Y-88000000D03*
X184225000Y-88000000D03*
%TD*%
D33*
%TO.C,R11*%
X154250000Y-122675000D03*
X154250000Y-121025000D03*
%TD*%
D40*
%TO.C,J1*%
X209570000Y-119200000D03*
X209570000Y-118400000D03*
D41*
X209570000Y-117250000D03*
X209570000Y-116250000D03*
X209570000Y-115750000D03*
X209570000Y-114750000D03*
D40*
X209570000Y-113600000D03*
X209570000Y-112800000D03*
X209570000Y-112800000D03*
X209570000Y-113600000D03*
D41*
X209570000Y-114250000D03*
X209570000Y-115250000D03*
X209570000Y-116750000D03*
X209570000Y-117750000D03*
D40*
X209570000Y-118400000D03*
X209570000Y-119200000D03*
D42*
X210145000Y-120320000D03*
D43*
X214325000Y-120320000D03*
D42*
X210145000Y-111680000D03*
D43*
X214325000Y-111680000D03*
%TD*%
D33*
%TO.C,R13*%
X167450000Y-129025000D03*
X167450000Y-127375000D03*
%TD*%
D44*
%TO.C,C2*%
X181190000Y-84725000D03*
X181190000Y-86275000D03*
%TD*%
D15*
%TO.C,C30*%
X181200000Y-99500000D03*
X179300000Y-99500000D03*
%TD*%
D22*
%TO.C,R20*%
X191810000Y-115141250D03*
X190790000Y-115141250D03*
%TD*%
D15*
%TO.C,C23*%
X182100000Y-116200000D03*
X180200000Y-116200000D03*
%TD*%
D45*
%TO.C,U5*%
X184250000Y-127350000D03*
X184650000Y-127350000D03*
X185050000Y-127350000D03*
X185450000Y-127350000D03*
X185850000Y-127350000D03*
X186250000Y-127350000D03*
X186650000Y-127350000D03*
D46*
X187350000Y-126450000D03*
X187350000Y-126050000D03*
X187350000Y-125650000D03*
X187350000Y-125250000D03*
X187350000Y-124850000D03*
X187350000Y-124450000D03*
D47*
X186650000Y-123600000D03*
D48*
X186250000Y-123575000D03*
D49*
X185850000Y-123587500D03*
D45*
X185450000Y-123550000D03*
X185050000Y-123550000D03*
X184650000Y-123550000D03*
X184250000Y-123550000D03*
D50*
X183750000Y-124550000D03*
X183750000Y-125000000D03*
X183750000Y-125450000D03*
X183750000Y-125900000D03*
D51*
X183725000Y-126350000D03*
%TD*%
D17*
%TO.C,C8*%
X200020000Y-132000000D03*
X200980000Y-132000000D03*
%TD*%
D44*
%TO.C,C1*%
X184000000Y-84725000D03*
X184000000Y-86275000D03*
%TD*%
D14*
%TO.C,R7*%
X207000000Y-117675000D03*
X207000000Y-119325000D03*
%TD*%
D52*
%TO.C,U2*%
X206800000Y-105500000D03*
X207750000Y-105500000D03*
X208700000Y-105500000D03*
X208700000Y-103225000D03*
X207750000Y-103225000D03*
X206800000Y-103225000D03*
%TD*%
D33*
%TO.C,R8*%
X207000000Y-114075000D03*
X207000000Y-112425000D03*
%TD*%
D22*
%TO.C,R24*%
X192750000Y-118750000D03*
X191730000Y-118750000D03*
%TD*%
D33*
%TO.C,R3*%
X146500000Y-99050000D03*
X146500000Y-97400000D03*
%TD*%
D17*
%TO.C,C15*%
X184470000Y-129700000D03*
X185430000Y-129700000D03*
%TD*%
D53*
%TO.C,U1*%
X198800000Y-89700000D03*
X198800000Y-90800000D03*
X198800000Y-91900000D03*
X199900000Y-89700000D03*
X199900000Y-90800000D03*
X199900000Y-91900000D03*
X201000000Y-89700000D03*
X201000000Y-90800000D03*
X201000000Y-91900000D03*
D54*
X190190000Y-84600000D03*
X190190000Y-86100000D03*
X190190000Y-87600000D03*
X190190000Y-89100000D03*
X190190000Y-90600000D03*
X190190000Y-92100000D03*
X190190000Y-93600000D03*
X190190000Y-95100000D03*
X190190000Y-96600000D03*
X207690000Y-96600000D03*
X207690000Y-95100000D03*
X207690000Y-93600000D03*
X207690000Y-92100000D03*
X207690000Y-90600000D03*
X207690000Y-89100000D03*
X207690000Y-87600000D03*
X207690000Y-86100000D03*
X207690000Y-84600000D03*
%TD*%
M02*
