%TF.GenerationSoftware,KiCad,Pcbnew,9.0.1*%
%TF.CreationDate,2025-10-20T03:30:54+02:00*%
%TF.ProjectId,GOG,474f472e-6b69-4636-9164-5f7063625858,rev?*%
%TF.SameCoordinates,Original*%
%TF.FileFunction,Legend,Bot*%
%TF.FilePolarity,Positive*%
%FSLAX46Y46*%
G04 Gerber Fmt 4.6, Leading zero omitted, Abs format (unit mm)*
G04 Created by KiCad (PCBNEW 9.0.1) date 2025-10-20 03:30:54*
%MOMM*%
%LPD*%
G01*
G04 APERTURE LIST*
G04 Aperture macros list*
%AMRoundRect*
0 Rectangle with rounded corners*
0 $1 Rounding radius*
0 $2 $3 $4 $5 $6 $7 $8 $9 X,Y pos of 4 corners*
0 Add a 4 corners polygon primitive as box body*
4,1,4,$2,$3,$4,$5,$6,$7,$8,$9,$2,$3,0*
0 Add four circle primitives for the rounded corners*
1,1,$1+$1,$2,$3*
1,1,$1+$1,$4,$5*
1,1,$1+$1,$6,$7*
1,1,$1+$1,$8,$9*
0 Add four rect primitives between the rounded corners*
20,1,$1+$1,$2,$3,$4,$5,0*
20,1,$1+$1,$4,$5,$6,$7,0*
20,1,$1+$1,$6,$7,$8,$9,0*
20,1,$1+$1,$8,$9,$2,$3,0*%
G04 Aperture macros list end*
%ADD10C,0.150000*%
%ADD11C,0.120000*%
%ADD12RoundRect,0.250000X-0.725000X0.600000X-0.725000X-0.600000X0.725000X-0.600000X0.725000X0.600000X0*%
%ADD13O,1.950000X1.700000*%
%ADD14R,1.700000X1.700000*%
%ADD15C,1.700000*%
%ADD16C,3.200000*%
%ADD17RoundRect,0.250000X-0.600000X-0.725000X0.600000X-0.725000X0.600000X0.725000X-0.600000X0.725000X0*%
%ADD18O,1.700000X1.950000*%
%ADD19C,1.400000*%
%ADD20O,1.400000X1.400000*%
%ADD21C,0.600000*%
%ADD22O,2.100000X1.000000*%
%ADD23O,1.800000X1.000000*%
%ADD24C,2.454000*%
%ADD25RoundRect,0.250001X1.149999X-1.149999X1.149999X1.149999X-1.149999X1.149999X-1.149999X-1.149999X0*%
%ADD26C,2.800000*%
%ADD27RoundRect,0.250000X0.750000X-0.600000X0.750000X0.600000X-0.750000X0.600000X-0.750000X-0.600000X0*%
%ADD28O,2.000000X1.700000*%
%ADD29RoundRect,0.200000X-0.200000X-0.275000X0.200000X-0.275000X0.200000X0.275000X-0.200000X0.275000X0*%
%ADD30RoundRect,0.140000X0.140000X0.170000X-0.140000X0.170000X-0.140000X-0.170000X0.140000X-0.170000X0*%
G04 APERTURE END LIST*
D10*
X193320476Y-88954819D02*
X193653809Y-88478628D01*
X193891904Y-88954819D02*
X193891904Y-87954819D01*
X193891904Y-87954819D02*
X193510952Y-87954819D01*
X193510952Y-87954819D02*
X193415714Y-88002438D01*
X193415714Y-88002438D02*
X193368095Y-88050057D01*
X193368095Y-88050057D02*
X193320476Y-88145295D01*
X193320476Y-88145295D02*
X193320476Y-88288152D01*
X193320476Y-88288152D02*
X193368095Y-88383390D01*
X193368095Y-88383390D02*
X193415714Y-88431009D01*
X193415714Y-88431009D02*
X193510952Y-88478628D01*
X193510952Y-88478628D02*
X193891904Y-88478628D01*
X192939523Y-88050057D02*
X192891904Y-88002438D01*
X192891904Y-88002438D02*
X192796666Y-87954819D01*
X192796666Y-87954819D02*
X192558571Y-87954819D01*
X192558571Y-87954819D02*
X192463333Y-88002438D01*
X192463333Y-88002438D02*
X192415714Y-88050057D01*
X192415714Y-88050057D02*
X192368095Y-88145295D01*
X192368095Y-88145295D02*
X192368095Y-88240533D01*
X192368095Y-88240533D02*
X192415714Y-88383390D01*
X192415714Y-88383390D02*
X192987142Y-88954819D01*
X192987142Y-88954819D02*
X192368095Y-88954819D01*
X185642857Y-122609580D02*
X185690476Y-122657200D01*
X185690476Y-122657200D02*
X185833333Y-122704819D01*
X185833333Y-122704819D02*
X185928571Y-122704819D01*
X185928571Y-122704819D02*
X186071428Y-122657200D01*
X186071428Y-122657200D02*
X186166666Y-122561961D01*
X186166666Y-122561961D02*
X186214285Y-122466723D01*
X186214285Y-122466723D02*
X186261904Y-122276247D01*
X186261904Y-122276247D02*
X186261904Y-122133390D01*
X186261904Y-122133390D02*
X186214285Y-121942914D01*
X186214285Y-121942914D02*
X186166666Y-121847676D01*
X186166666Y-121847676D02*
X186071428Y-121752438D01*
X186071428Y-121752438D02*
X185928571Y-121704819D01*
X185928571Y-121704819D02*
X185833333Y-121704819D01*
X185833333Y-121704819D02*
X185690476Y-121752438D01*
X185690476Y-121752438D02*
X185642857Y-121800057D01*
X184690476Y-122704819D02*
X185261904Y-122704819D01*
X184976190Y-122704819D02*
X184976190Y-121704819D01*
X184976190Y-121704819D02*
X185071428Y-121847676D01*
X185071428Y-121847676D02*
X185166666Y-121942914D01*
X185166666Y-121942914D02*
X185261904Y-121990533D01*
X184214285Y-122704819D02*
X184023809Y-122704819D01*
X184023809Y-122704819D02*
X183928571Y-122657200D01*
X183928571Y-122657200D02*
X183880952Y-122609580D01*
X183880952Y-122609580D02*
X183785714Y-122466723D01*
X183785714Y-122466723D02*
X183738095Y-122276247D01*
X183738095Y-122276247D02*
X183738095Y-121895295D01*
X183738095Y-121895295D02*
X183785714Y-121800057D01*
X183785714Y-121800057D02*
X183833333Y-121752438D01*
X183833333Y-121752438D02*
X183928571Y-121704819D01*
X183928571Y-121704819D02*
X184119047Y-121704819D01*
X184119047Y-121704819D02*
X184214285Y-121752438D01*
X184214285Y-121752438D02*
X184261904Y-121800057D01*
X184261904Y-121800057D02*
X184309523Y-121895295D01*
X184309523Y-121895295D02*
X184309523Y-122133390D01*
X184309523Y-122133390D02*
X184261904Y-122228628D01*
X184261904Y-122228628D02*
X184214285Y-122276247D01*
X184214285Y-122276247D02*
X184119047Y-122323866D01*
X184119047Y-122323866D02*
X183928571Y-122323866D01*
X183928571Y-122323866D02*
X183833333Y-122276247D01*
X183833333Y-122276247D02*
X183785714Y-122228628D01*
X183785714Y-122228628D02*
X183738095Y-122133390D01*
X193320476Y-85454819D02*
X193653809Y-84978628D01*
X193891904Y-85454819D02*
X193891904Y-84454819D01*
X193891904Y-84454819D02*
X193510952Y-84454819D01*
X193510952Y-84454819D02*
X193415714Y-84502438D01*
X193415714Y-84502438D02*
X193368095Y-84550057D01*
X193368095Y-84550057D02*
X193320476Y-84645295D01*
X193320476Y-84645295D02*
X193320476Y-84788152D01*
X193320476Y-84788152D02*
X193368095Y-84883390D01*
X193368095Y-84883390D02*
X193415714Y-84931009D01*
X193415714Y-84931009D02*
X193510952Y-84978628D01*
X193510952Y-84978628D02*
X193891904Y-84978628D01*
X192463333Y-84788152D02*
X192463333Y-85454819D01*
X192701428Y-84407200D02*
X192939523Y-85121485D01*
X192939523Y-85121485D02*
X192320476Y-85121485D01*
X185592857Y-126649580D02*
X185640476Y-126697200D01*
X185640476Y-126697200D02*
X185783333Y-126744819D01*
X185783333Y-126744819D02*
X185878571Y-126744819D01*
X185878571Y-126744819D02*
X186021428Y-126697200D01*
X186021428Y-126697200D02*
X186116666Y-126601961D01*
X186116666Y-126601961D02*
X186164285Y-126506723D01*
X186164285Y-126506723D02*
X186211904Y-126316247D01*
X186211904Y-126316247D02*
X186211904Y-126173390D01*
X186211904Y-126173390D02*
X186164285Y-125982914D01*
X186164285Y-125982914D02*
X186116666Y-125887676D01*
X186116666Y-125887676D02*
X186021428Y-125792438D01*
X186021428Y-125792438D02*
X185878571Y-125744819D01*
X185878571Y-125744819D02*
X185783333Y-125744819D01*
X185783333Y-125744819D02*
X185640476Y-125792438D01*
X185640476Y-125792438D02*
X185592857Y-125840057D01*
X184640476Y-126744819D02*
X185211904Y-126744819D01*
X184926190Y-126744819D02*
X184926190Y-125744819D01*
X184926190Y-125744819D02*
X185021428Y-125887676D01*
X185021428Y-125887676D02*
X185116666Y-125982914D01*
X185116666Y-125982914D02*
X185211904Y-126030533D01*
X183783333Y-125744819D02*
X183973809Y-125744819D01*
X183973809Y-125744819D02*
X184069047Y-125792438D01*
X184069047Y-125792438D02*
X184116666Y-125840057D01*
X184116666Y-125840057D02*
X184211904Y-125982914D01*
X184211904Y-125982914D02*
X184259523Y-126173390D01*
X184259523Y-126173390D02*
X184259523Y-126554342D01*
X184259523Y-126554342D02*
X184211904Y-126649580D01*
X184211904Y-126649580D02*
X184164285Y-126697200D01*
X184164285Y-126697200D02*
X184069047Y-126744819D01*
X184069047Y-126744819D02*
X183878571Y-126744819D01*
X183878571Y-126744819D02*
X183783333Y-126697200D01*
X183783333Y-126697200D02*
X183735714Y-126649580D01*
X183735714Y-126649580D02*
X183688095Y-126554342D01*
X183688095Y-126554342D02*
X183688095Y-126316247D01*
X183688095Y-126316247D02*
X183735714Y-126221009D01*
X183735714Y-126221009D02*
X183783333Y-126173390D01*
X183783333Y-126173390D02*
X183878571Y-126125771D01*
X183878571Y-126125771D02*
X184069047Y-126125771D01*
X184069047Y-126125771D02*
X184164285Y-126173390D01*
X184164285Y-126173390D02*
X184211904Y-126221009D01*
X184211904Y-126221009D02*
X184259523Y-126316247D01*
X193320476Y-87204819D02*
X193653809Y-86728628D01*
X193891904Y-87204819D02*
X193891904Y-86204819D01*
X193891904Y-86204819D02*
X193510952Y-86204819D01*
X193510952Y-86204819D02*
X193415714Y-86252438D01*
X193415714Y-86252438D02*
X193368095Y-86300057D01*
X193368095Y-86300057D02*
X193320476Y-86395295D01*
X193320476Y-86395295D02*
X193320476Y-86538152D01*
X193320476Y-86538152D02*
X193368095Y-86633390D01*
X193368095Y-86633390D02*
X193415714Y-86681009D01*
X193415714Y-86681009D02*
X193510952Y-86728628D01*
X193510952Y-86728628D02*
X193891904Y-86728628D01*
X192415714Y-86204819D02*
X192891904Y-86204819D01*
X192891904Y-86204819D02*
X192939523Y-86681009D01*
X192939523Y-86681009D02*
X192891904Y-86633390D01*
X192891904Y-86633390D02*
X192796666Y-86585771D01*
X192796666Y-86585771D02*
X192558571Y-86585771D01*
X192558571Y-86585771D02*
X192463333Y-86633390D01*
X192463333Y-86633390D02*
X192415714Y-86681009D01*
X192415714Y-86681009D02*
X192368095Y-86776247D01*
X192368095Y-86776247D02*
X192368095Y-87014342D01*
X192368095Y-87014342D02*
X192415714Y-87109580D01*
X192415714Y-87109580D02*
X192463333Y-87157200D01*
X192463333Y-87157200D02*
X192558571Y-87204819D01*
X192558571Y-87204819D02*
X192796666Y-87204819D01*
X192796666Y-87204819D02*
X192891904Y-87157200D01*
X192891904Y-87157200D02*
X192939523Y-87109580D01*
D11*
%TO.C,R2*%
X195512742Y-87977500D02*
X195987258Y-87977500D01*
X195512742Y-89022500D02*
X195987258Y-89022500D01*
%TO.C,C19*%
X185057836Y-123000000D02*
X184842164Y-123000000D01*
X185057836Y-123900000D02*
X184842164Y-123900000D01*
%TO.C,R4*%
X195512742Y-84477500D02*
X195987258Y-84477500D01*
X195512742Y-85522500D02*
X195987258Y-85522500D01*
%TO.C,C16*%
X185057836Y-127000000D02*
X184842164Y-127000000D01*
X185057836Y-127900000D02*
X184842164Y-127900000D01*
%TO.C,R5*%
X195512742Y-86227500D02*
X195987258Y-86227500D01*
X195512742Y-87272500D02*
X195987258Y-87272500D01*
%TD*%
%LPC*%
D12*
%TO.C,J6*%
X146500000Y-127350000D03*
D13*
X146500000Y-129850000D03*
X146500000Y-132350000D03*
X146500000Y-134850000D03*
%TD*%
D14*
%TO.C,J11*%
X212750000Y-102000000D03*
D15*
X212750000Y-99460000D03*
%TD*%
D14*
%TO.C,J3*%
X171250000Y-87250000D03*
D15*
X168710000Y-87250000D03*
X166170000Y-87250000D03*
X163630000Y-87250000D03*
%TD*%
D16*
%TO.C,REF\u002A\u002A*%
X143750000Y-87250000D03*
%TD*%
D17*
%TO.C,J7*%
X154250000Y-144725000D03*
D18*
X156750000Y-144725000D03*
X159250000Y-144725000D03*
X161750000Y-144725000D03*
%TD*%
D16*
%TO.C,REF\u002A\u002A*%
X213250000Y-147000000D03*
%TD*%
%TO.C,REF\u002A\u002A*%
X143750000Y-147000000D03*
%TD*%
D19*
%TO.C,TH1*%
X191750000Y-122500000D03*
D20*
X193650000Y-122500000D03*
%TD*%
D14*
%TO.C,J10*%
X175960000Y-94500000D03*
D15*
X178500000Y-94500000D03*
X181040000Y-94500000D03*
%TD*%
D16*
%TO.C,REF\u002A\u002A*%
X213250000Y-87250000D03*
%TD*%
D21*
%TO.C,J1*%
X210645000Y-118890000D03*
X210645000Y-113110000D03*
D22*
X210145000Y-120320000D03*
D23*
X214325000Y-120320000D03*
D22*
X210145000Y-111680000D03*
D23*
X214325000Y-111680000D03*
%TD*%
D24*
%TO.C,J5*%
X145000000Y-118250000D03*
X147540000Y-115710000D03*
X147540000Y-120790000D03*
X142460000Y-115710000D03*
X142460000Y-120790000D03*
%TD*%
D25*
%TO.C,J8*%
X210250000Y-138500000D03*
D26*
X210250000Y-133500000D03*
%TD*%
D27*
%TO.C,J9*%
X210725000Y-127250000D03*
D28*
X210725000Y-124750000D03*
%TD*%
D14*
%TO.C,J4*%
X212750000Y-108525000D03*
D15*
X212750000Y-105985000D03*
%TD*%
D14*
%TO.C,J2*%
X212750000Y-95525000D03*
D15*
X212750000Y-92985000D03*
%TD*%
D29*
%TO.C,R2*%
X194925000Y-88500000D03*
X196575000Y-88500000D03*
%TD*%
D30*
%TO.C,C19*%
X185430000Y-123450000D03*
X184470000Y-123450000D03*
%TD*%
D29*
%TO.C,R4*%
X194925000Y-85000000D03*
X196575000Y-85000000D03*
%TD*%
D30*
%TO.C,C16*%
X185430000Y-127450000D03*
X184470000Y-127450000D03*
%TD*%
D29*
%TO.C,R5*%
X194925000Y-86750000D03*
X196575000Y-86750000D03*
%TD*%
%LPD*%
M02*
