%TF.GenerationSoftware,KiCad,Pcbnew,9.0.1*%
%TF.CreationDate,2025-10-20T03:30:54+02:00*%
%TF.ProjectId,GOG,474f472e-6b69-4636-9164-5f7063625858,rev?*%
%TF.SameCoordinates,Original*%
%TF.FileFunction,Copper,L2,Bot*%
%TF.FilePolarity,Positive*%
%FSLAX46Y46*%
G04 Gerber Fmt 4.6, Leading zero omitted, Abs format (unit mm)*
G04 Created by KiCad (PCBNEW 9.0.1) date 2025-10-20 03:30:54*
%MOMM*%
%LPD*%
G01*
G04 APERTURE LIST*
G04 Aperture macros list*
%AMRoundRect*
0 Rectangle with rounded corners*
0 $1 Rounding radius*
0 $2 $3 $4 $5 $6 $7 $8 $9 X,Y pos of 4 corners*
0 Add a 4 corners polygon primitive as box body*
4,1,4,$2,$3,$4,$5,$6,$7,$8,$9,$2,$3,0*
0 Add four circle primitives for the rounded corners*
1,1,$1+$1,$2,$3*
1,1,$1+$1,$4,$5*
1,1,$1+$1,$6,$7*
1,1,$1+$1,$8,$9*
0 Add four rect primitives between the rounded corners*
20,1,$1+$1,$2,$3,$4,$5,0*
20,1,$1+$1,$4,$5,$6,$7,0*
20,1,$1+$1,$6,$7,$8,$9,0*
20,1,$1+$1,$8,$9,$2,$3,0*%
G04 Aperture macros list end*
%TA.AperFunction,ComponentPad*%
%ADD10RoundRect,0.250000X-0.725000X0.600000X-0.725000X-0.600000X0.725000X-0.600000X0.725000X0.600000X0*%
%TD*%
%TA.AperFunction,ComponentPad*%
%ADD11O,1.950000X1.700000*%
%TD*%
%TA.AperFunction,ComponentPad*%
%ADD12R,1.700000X1.700000*%
%TD*%
%TA.AperFunction,ComponentPad*%
%ADD13C,1.700000*%
%TD*%
%TA.AperFunction,ComponentPad*%
%ADD14RoundRect,0.250000X-0.600000X-0.725000X0.600000X-0.725000X0.600000X0.725000X-0.600000X0.725000X0*%
%TD*%
%TA.AperFunction,ComponentPad*%
%ADD15O,1.700000X1.950000*%
%TD*%
%TA.AperFunction,ComponentPad*%
%ADD16C,1.400000*%
%TD*%
%TA.AperFunction,ComponentPad*%
%ADD17O,1.400000X1.400000*%
%TD*%
%TA.AperFunction,HeatsinkPad*%
%ADD18O,2.100000X1.000000*%
%TD*%
%TA.AperFunction,HeatsinkPad*%
%ADD19O,1.800000X1.000000*%
%TD*%
%TA.AperFunction,ComponentPad*%
%ADD20C,2.250000*%
%TD*%
%TA.AperFunction,ComponentPad*%
%ADD21RoundRect,0.250001X1.149999X-1.149999X1.149999X1.149999X-1.149999X1.149999X-1.149999X-1.149999X0*%
%TD*%
%TA.AperFunction,ComponentPad*%
%ADD22C,2.800000*%
%TD*%
%TA.AperFunction,ComponentPad*%
%ADD23RoundRect,0.250000X0.750000X-0.600000X0.750000X0.600000X-0.750000X0.600000X-0.750000X-0.600000X0*%
%TD*%
%TA.AperFunction,ComponentPad*%
%ADD24O,2.000000X1.700000*%
%TD*%
%TA.AperFunction,HeatsinkPad*%
%ADD25C,0.600000*%
%TD*%
%TA.AperFunction,SMDPad,CuDef*%
%ADD26RoundRect,0.200000X-0.200000X-0.275000X0.200000X-0.275000X0.200000X0.275000X-0.200000X0.275000X0*%
%TD*%
%TA.AperFunction,SMDPad,CuDef*%
%ADD27RoundRect,0.140000X0.140000X0.170000X-0.140000X0.170000X-0.140000X-0.170000X0.140000X-0.170000X0*%
%TD*%
%TA.AperFunction,ViaPad*%
%ADD28C,0.500000*%
%TD*%
%TA.AperFunction,Conductor*%
%ADD29C,0.500000*%
%TD*%
%TA.AperFunction,Conductor*%
%ADD30C,0.200000*%
%TD*%
%TA.AperFunction,Conductor*%
%ADD31C,0.400000*%
%TD*%
%TA.AperFunction,Conductor*%
%ADD32C,0.600000*%
%TD*%
G04 APERTURE END LIST*
D10*
%TO.P,J6,1,Pin_1*%
%TO.N,3.3V*%
X146500000Y-127350000D03*
D11*
%TO.P,J6,2,Pin_2*%
%TO.N,TX_GPS*%
X146500000Y-129850000D03*
%TO.P,J6,3,Pin_3*%
%TO.N,RX_GPS*%
X146500000Y-132350000D03*
%TO.P,J6,4,Pin_4*%
%TO.N,GND*%
X146500000Y-134850000D03*
%TD*%
D12*
%TO.P,J11,1,Pin_1*%
%TO.N,BQ_CE_N*%
X212750000Y-102000000D03*
D13*
%TO.P,J11,2,Pin_2*%
%TO.N,BQ_INT_N*%
X212750000Y-99460000D03*
%TD*%
D12*
%TO.P,J3,1,Pin_1*%
%TO.N,SPI_SELECT*%
X171250000Y-87250000D03*
D13*
%TO.P,J3,2,Pin_2*%
%TO.N,SPI_MOSI*%
X168710000Y-87250000D03*
%TO.P,J3,3,Pin_3*%
%TO.N,SPI_MISO*%
X166170000Y-87250000D03*
%TO.P,J3,4,Pin_4*%
%TO.N,SPI_CLK*%
X163630000Y-87250000D03*
%TD*%
D14*
%TO.P,J7,1,Pin_1*%
%TO.N,EXTINT*%
X154250000Y-144725000D03*
D15*
%TO.P,J7,2,Pin_2*%
%TO.N,~{reset}*%
X156750000Y-144725000D03*
%TO.P,J7,3,Pin_3*%
%TO.N,~{safe}*%
X159250000Y-144725000D03*
%TO.P,J7,4,Pin_4*%
%TO.N,TP*%
X161750000Y-144725000D03*
%TD*%
D16*
%TO.P,TH1,1*%
%TO.N,Net-(U5-TS)*%
X191750000Y-122500000D03*
D17*
%TO.P,TH1,2*%
%TO.N,GND*%
X193650000Y-122500000D03*
%TD*%
D12*
%TO.P,J10,1,Pin_1*%
%TO.N,3.3V*%
X175960000Y-94500000D03*
D13*
%TO.P,J10,2,Pin_2*%
%TO.N,GND*%
X178500000Y-94500000D03*
%TO.P,J10,3,Pin_3*%
%TO.N,/Power/VSYS*%
X181040000Y-94500000D03*
%TD*%
D18*
%TO.P,J1,S1,SHIELD*%
%TO.N,GND*%
X210145000Y-120320000D03*
D19*
X214325000Y-120320000D03*
D18*
X210145000Y-111680000D03*
D19*
X214325000Y-111680000D03*
%TD*%
D20*
%TO.P,J5,1*%
%TO.N,Net-(C6-Pad1)*%
X145000000Y-118250000D03*
%TO.P,J5,G1*%
%TO.N,GND*%
X147540000Y-115710000D03*
%TO.P,J5,G2*%
X147540000Y-120790000D03*
%TO.P,J5,G3*%
X142460000Y-115710000D03*
%TO.P,J5,G4*%
X142460000Y-120790000D03*
%TD*%
D21*
%TO.P,J8,1,Pin_1*%
%TO.N,VSOL*%
X210250000Y-138500000D03*
D22*
%TO.P,J8,2,Pin_2*%
%TO.N,GND*%
X210250000Y-133500000D03*
%TD*%
D23*
%TO.P,J9,1,Pin_1*%
%TO.N,GND*%
X210725000Y-127250000D03*
D24*
%TO.P,J9,2,Pin_2*%
%TO.N,/Power/VBAT*%
X210725000Y-124750000D03*
%TD*%
D12*
%TO.P,J4,1,Pin_1*%
%TO.N,RX*%
X212750000Y-108525000D03*
D13*
%TO.P,J4,2,Pin_2*%
%TO.N,TX*%
X212750000Y-105985000D03*
%TD*%
D12*
%TO.P,J2,1,Pin_1*%
%TO.N,SCL*%
X212750000Y-95525000D03*
D13*
%TO.P,J2,2,Pin_2*%
%TO.N,SDA*%
X212750000Y-92985000D03*
%TD*%
D25*
%TO.P,U1,19,GND*%
%TO.N,GND*%
X198800000Y-90250000D03*
X198800000Y-91350000D03*
X199350000Y-89700000D03*
X199350000Y-90800000D03*
X199350000Y-91900000D03*
X199900000Y-90250000D03*
X199900000Y-91350000D03*
X200450000Y-89700000D03*
X200450000Y-90800000D03*
X200450000Y-91900000D03*
X201000000Y-90250000D03*
X201000000Y-91350000D03*
%TD*%
D26*
%TO.P,R2,1*%
%TO.N,3.3V*%
X194925000Y-88500000D03*
%TO.P,R2,2*%
%TO.N,BQ_INT_N*%
X196575000Y-88500000D03*
%TD*%
D27*
%TO.P,C19,1*%
%TO.N,Net-(U5-BTST2)*%
X185430000Y-123450000D03*
%TO.P,C19,2*%
%TO.N,Net-(U5-SW2)*%
X184470000Y-123450000D03*
%TD*%
D26*
%TO.P,R4,1*%
%TO.N,3.3V*%
X194925000Y-85000000D03*
%TO.P,R4,2*%
%TO.N,SDA*%
X196575000Y-85000000D03*
%TD*%
D27*
%TO.P,C16,1*%
%TO.N,Net-(U5-BTST1)*%
X185430000Y-127450000D03*
%TO.P,C16,2*%
%TO.N,Net-(U5-SW1)*%
X184470000Y-127450000D03*
%TD*%
D26*
%TO.P,R5,1*%
%TO.N,3.3V*%
X194925000Y-86750000D03*
%TO.P,R5,2*%
%TO.N,SCL*%
X196575000Y-86750000D03*
%TD*%
D28*
%TO.N,3.3V*%
X191750000Y-84500000D03*
X182000000Y-103750000D03*
X180250000Y-84725000D03*
X157000000Y-104750000D03*
X171750000Y-105000000D03*
X153250000Y-129750000D03*
X175000000Y-84750000D03*
%TO.N,GND*%
X179750000Y-104250000D03*
X178500000Y-100750000D03*
X164750000Y-91750000D03*
X178250000Y-98750000D03*
X178250000Y-96750000D03*
X176500000Y-91750000D03*
X177750000Y-100750000D03*
X186150000Y-128250000D03*
X153100000Y-126350000D03*
X186450000Y-126450000D03*
X190000000Y-105250000D03*
X197750000Y-105250000D03*
X186450000Y-124450000D03*
X190500000Y-126450000D03*
X186750000Y-118750000D03*
X147250000Y-91750000D03*
X178250000Y-99750000D03*
X151000000Y-104500000D03*
X178250000Y-97750000D03*
X193650727Y-126450000D03*
%TO.N,Net-(D3-K)*%
X186750000Y-129750000D03*
X196875000Y-131875000D03*
%TO.N,Net-(Q3-D)*%
X190750000Y-141750000D03*
X188500000Y-141750000D03*
X196000000Y-141750000D03*
%TO.N,Net-(U5-SW1)*%
X178500000Y-127250000D03*
X184950000Y-126523695D03*
X178500000Y-127900000D03*
%TO.N,Net-(U5-BTST1)*%
X185056352Y-128105660D03*
%TO.N,/Power/REGN*%
X189500000Y-120500000D03*
X185500000Y-128750000D03*
X183625000Y-129125000D03*
X189000000Y-128750000D03*
X196500000Y-120500000D03*
%TO.N,VBUS*%
X212500000Y-116000000D03*
X188750000Y-135500000D03*
X191500000Y-135500000D03*
X187500000Y-128000000D03*
X192000000Y-128000000D03*
X204250000Y-127500000D03*
X207750000Y-102000000D03*
%TO.N,Net-(U5-BTST2)*%
X185855587Y-122761157D03*
%TO.N,Net-(U5-SW2)*%
X178500000Y-123650000D03*
X178500000Y-123000000D03*
X184950000Y-124450000D03*
%TO.N,/Power/VBAT*%
X184250000Y-115250000D03*
X190750000Y-114250000D03*
%TO.N,Net-(D3-A)*%
X204000000Y-130000000D03*
X204750000Y-135500000D03*
%TO.N,SCL*%
X202312500Y-124437500D03*
X188500000Y-124500000D03*
X209000000Y-86250000D03*
X202500000Y-103250000D03*
X167500000Y-111750000D03*
%TO.N,SDA*%
X209000000Y-85250000D03*
X168250000Y-112500000D03*
X201250000Y-124000000D03*
X188250000Y-123750000D03*
X202000000Y-104000000D03*
%TO.N,SPI_CLK*%
X188750000Y-92000000D03*
%TO.N,SPI_MISO*%
X188750000Y-90500000D03*
%TO.N,SPI_SELECT*%
X188750000Y-87750000D03*
%TO.N,SPI_MOSI*%
X188750000Y-89250000D03*
%TO.N,RX*%
X205500000Y-95250000D03*
%TO.N,TX*%
X206250000Y-93750000D03*
%TO.N,TP*%
X163250000Y-133500000D03*
%TO.N,~{safe}*%
X163250000Y-131750000D03*
%TO.N,~{reset}*%
X153250000Y-131750000D03*
%TO.N,EXTINT*%
X153250000Y-133500000D03*
%TO.N,BQ_INT_N*%
X187250000Y-120690448D03*
X203250000Y-123250000D03*
X209000000Y-88000000D03*
%TO.N,BQ_CE_N*%
X188500000Y-125250000D03*
X206000000Y-124000000D03*
X209000000Y-89750000D03*
X203250000Y-124750000D03*
%TO.N,RFM_RESET*%
X188750000Y-93500000D03*
X153000000Y-94000000D03*
%TO.N,Net-(U5-ACDRV2)*%
X188375000Y-127100000D03*
X194500000Y-127250000D03*
%TO.N,Net-(U5-TS)*%
X189250000Y-122250000D03*
X199500000Y-119500000D03*
X191250000Y-119500000D03*
%TO.N,Net-(U5-QON_N)*%
X197750000Y-125750000D03*
X189250000Y-125750000D03*
%TO.N,RFM_DIO0*%
X164750000Y-110500000D03*
X204500000Y-102500000D03*
%TD*%
D29*
%TO.N,3.3V*%
X192250000Y-85000000D02*
X191750000Y-84500000D01*
X194925000Y-88500000D02*
X194925000Y-85000000D01*
X171500000Y-104750000D02*
X157000000Y-104750000D01*
X149750000Y-129750000D02*
X153250000Y-129750000D01*
X180750000Y-105000000D02*
X182000000Y-103750000D01*
X171750000Y-105000000D02*
X171500000Y-104750000D01*
X194925000Y-85000000D02*
X192250000Y-85000000D01*
X175000000Y-84750000D02*
X180225000Y-84750000D01*
X148900000Y-129750000D02*
X149750000Y-129750000D01*
X180225000Y-84750000D02*
X180250000Y-84725000D01*
X171750000Y-105000000D02*
X180750000Y-105000000D01*
X146500000Y-127350000D02*
X148900000Y-129750000D01*
%TO.N,GND*%
X186510587Y-124389413D02*
X186510587Y-118989413D01*
X151000000Y-91750000D02*
X147250000Y-91750000D01*
X211750000Y-112750000D02*
X211750000Y-119265000D01*
X197750000Y-105250000D02*
X190000000Y-105250000D01*
X210145000Y-111680000D02*
X203715000Y-105250000D01*
X151000000Y-91750000D02*
X151000000Y-104500000D01*
X211250000Y-127250000D02*
X210725000Y-127250000D01*
X210680000Y-111680000D02*
X211750000Y-112750000D01*
X164750000Y-91750000D02*
X151000000Y-91750000D01*
X186450000Y-124450000D02*
X186510587Y-124389413D01*
X190500000Y-126450000D02*
X193650727Y-126450000D01*
X210145000Y-120320000D02*
X212750000Y-122925000D01*
X147540000Y-120790000D02*
X153100000Y-126350000D01*
X186450000Y-126450000D02*
X186450000Y-127950000D01*
X186510587Y-118989413D02*
X186750000Y-118750000D01*
X203715000Y-105250000D02*
X197750000Y-105250000D01*
X186450000Y-127950000D02*
X186150000Y-128250000D01*
X212750000Y-122925000D02*
X212750000Y-125750000D01*
X209925000Y-126450000D02*
X210725000Y-127250000D01*
X211750000Y-119265000D02*
X210695000Y-120320000D01*
X210145000Y-111680000D02*
X210680000Y-111680000D01*
X186450000Y-126450000D02*
X190500000Y-126450000D01*
X179750000Y-104250000D02*
X179750000Y-102000000D01*
X176500000Y-91750000D02*
X164750000Y-91750000D01*
X179750000Y-102000000D02*
X178500000Y-100750000D01*
X193650727Y-126450000D02*
X209925000Y-126450000D01*
X210725000Y-133025000D02*
X210250000Y-133500000D01*
X210695000Y-120320000D02*
X210145000Y-120320000D01*
X212750000Y-125750000D02*
X211250000Y-127250000D01*
D30*
%TO.N,Net-(D3-K)*%
X188500000Y-131500000D02*
X186750000Y-129750000D01*
X196875000Y-131875000D02*
X196500000Y-131500000D01*
X196500000Y-131500000D02*
X188500000Y-131500000D01*
D31*
%TO.N,Net-(Q3-D)*%
X190750000Y-141750000D02*
X196000000Y-141750000D01*
X188500000Y-141750000D02*
X190750000Y-141750000D01*
D29*
%TO.N,Net-(U5-SW1)*%
X184676305Y-126250000D02*
X183000000Y-126250000D01*
X184950000Y-126523695D02*
X184676305Y-126250000D01*
X181750000Y-127500000D02*
X178750000Y-127500000D01*
D31*
X184470000Y-127450000D02*
X184470000Y-127003695D01*
D29*
X183000000Y-126250000D02*
X181750000Y-127500000D01*
X178750000Y-127500000D02*
X178500000Y-127250000D01*
X178750000Y-127650000D02*
X178500000Y-127900000D01*
X178750000Y-127500000D02*
X178750000Y-127650000D01*
D31*
X184470000Y-127003695D02*
X184950000Y-126523695D01*
D30*
%TO.N,Net-(U5-BTST1)*%
X185430000Y-127450000D02*
X185430000Y-127732012D01*
X185430000Y-127732012D02*
X185056352Y-128105660D01*
%TO.N,/Power/REGN*%
X189500000Y-120500000D02*
X196500000Y-120500000D01*
X184000000Y-128750000D02*
X183625000Y-129125000D01*
X185500000Y-128750000D02*
X189000000Y-128750000D01*
X185500000Y-128750000D02*
X184000000Y-128750000D01*
D29*
%TO.N,VBUS*%
X203750000Y-128000000D02*
X192000000Y-128000000D01*
X188750000Y-135500000D02*
X191500000Y-135500000D01*
X204250000Y-127500000D02*
X203750000Y-128000000D01*
X212500000Y-116000000D02*
X212500000Y-112000000D01*
X212500000Y-112000000D02*
X210250000Y-109750000D01*
X187500000Y-128000000D02*
X192000000Y-128000000D01*
X209250000Y-104250000D02*
X208000000Y-104250000D01*
X207750000Y-104000000D02*
X207750000Y-102000000D01*
X208000000Y-104250000D02*
X207750000Y-104000000D01*
X210250000Y-109750000D02*
X210250000Y-105250000D01*
X210250000Y-105250000D02*
X209250000Y-104250000D01*
D30*
%TO.N,Net-(U5-BTST2)*%
X185430000Y-123450000D02*
X185430000Y-123186744D01*
X185430000Y-123186744D02*
X185855587Y-122761157D01*
D29*
%TO.N,Net-(U5-SW2)*%
X178800000Y-123350000D02*
X178500000Y-123650000D01*
X178850000Y-123350000D02*
X178500000Y-123000000D01*
D31*
X184470000Y-123970000D02*
X184950000Y-124450000D01*
D29*
X178850000Y-123350000D02*
X178800000Y-123350000D01*
X181600000Y-123350000D02*
X178850000Y-123350000D01*
X184650000Y-124750000D02*
X183000000Y-124750000D01*
D31*
X184470000Y-123450000D02*
X184470000Y-123970000D01*
D29*
X183000000Y-124750000D02*
X181600000Y-123350000D01*
X184950000Y-124450000D02*
X184650000Y-124750000D01*
D32*
%TO.N,/Power/VBAT*%
X196750000Y-117250000D02*
X201000000Y-117250000D01*
X184250000Y-115250000D02*
X185250000Y-114250000D01*
X208500000Y-124750000D02*
X210725000Y-124750000D01*
X190750000Y-114250000D02*
X193750000Y-114250000D01*
X185250000Y-114250000D02*
X190750000Y-114250000D01*
X193750000Y-114250000D02*
X196750000Y-117250000D01*
X201000000Y-117250000D02*
X208500000Y-124750000D01*
D30*
%TO.N,Net-(D3-A)*%
X204750000Y-130750000D02*
X204000000Y-130000000D01*
X204750000Y-135500000D02*
X204750000Y-130750000D01*
%TO.N,SCL*%
X177500000Y-111250000D02*
X185500000Y-103250000D01*
X211000000Y-93500000D02*
X212750000Y-95250000D01*
X211000000Y-91698862D02*
X211000000Y-93500000D01*
X185500000Y-103250000D02*
X202500000Y-103250000D01*
X212750000Y-95250000D02*
X212750000Y-95525000D01*
X210172000Y-87422000D02*
X210172000Y-90870862D01*
X209000000Y-86250000D02*
X210172000Y-87422000D01*
X168000000Y-111250000D02*
X177500000Y-111250000D01*
X188850000Y-124850000D02*
X201201703Y-124850000D01*
X167500000Y-111750000D02*
X168000000Y-111250000D01*
X201201703Y-124850000D02*
X201301703Y-124750000D01*
X197075000Y-86250000D02*
X209000000Y-86250000D01*
X201301703Y-124750000D02*
X202000000Y-124750000D01*
X202000000Y-124750000D02*
X202312500Y-124437500D01*
X196575000Y-86750000D02*
X197075000Y-86250000D01*
X188500000Y-124500000D02*
X188850000Y-124850000D01*
X210172000Y-90870862D02*
X211000000Y-91698862D01*
%TO.N,SDA*%
X208750000Y-85000000D02*
X209000000Y-85250000D01*
X169172000Y-111578000D02*
X177635862Y-111578000D01*
X209000000Y-85250000D02*
X210500000Y-86750000D01*
X177713862Y-111500000D02*
X177750000Y-111500000D01*
X185250000Y-104000000D02*
X202000000Y-104000000D01*
X210500000Y-90735000D02*
X212750000Y-92985000D01*
X188846875Y-124096875D02*
X189250000Y-124500000D01*
X177635862Y-111578000D02*
X177713862Y-111500000D01*
X196575000Y-85000000D02*
X208750000Y-85000000D01*
X210500000Y-86750000D02*
X210500000Y-90735000D01*
X200750000Y-124500000D02*
X201250000Y-124000000D01*
X177750000Y-111500000D02*
X185250000Y-104000000D01*
X189250000Y-124500000D02*
X200750000Y-124500000D01*
X168250000Y-112500000D02*
X169172000Y-111578000D01*
X188846875Y-124096875D02*
X188500000Y-123750000D01*
X188500000Y-123750000D02*
X188250000Y-123750000D01*
%TO.N,SPI_CLK*%
X188750000Y-92000000D02*
X188750000Y-91500000D01*
X188000000Y-90750000D02*
X167130000Y-90750000D01*
X167130000Y-90750000D02*
X163630000Y-87250000D01*
X188750000Y-91500000D02*
X188000000Y-90750000D01*
%TO.N,SPI_MISO*%
X169170000Y-90250000D02*
X166170000Y-87250000D01*
X188750000Y-90500000D02*
X188500000Y-90250000D01*
X188500000Y-90250000D02*
X169170000Y-90250000D01*
%TO.N,SPI_SELECT*%
X188750000Y-87750000D02*
X188750000Y-88250000D01*
X171250000Y-87750000D02*
X171250000Y-87250000D01*
X172750000Y-89250000D02*
X171250000Y-87750000D01*
X187750000Y-89250000D02*
X172750000Y-89250000D01*
X188750000Y-88250000D02*
X187750000Y-89250000D01*
%TO.N,SPI_MOSI*%
X188750000Y-89250000D02*
X188250000Y-89750000D01*
X171210000Y-89750000D02*
X168710000Y-87250000D01*
X188250000Y-89750000D02*
X171210000Y-89750000D01*
%TO.N,RX*%
X205500000Y-95250000D02*
X205500000Y-97750000D01*
X211250000Y-105250000D02*
X211250000Y-107025000D01*
X210500000Y-104500000D02*
X211250000Y-105250000D01*
X205500000Y-97750000D02*
X210500000Y-102750000D01*
X211250000Y-107025000D02*
X212750000Y-108525000D01*
X210500000Y-102750000D02*
X210500000Y-104500000D01*
%TO.N,TX*%
X211000000Y-104235000D02*
X211000000Y-102500000D01*
X206250000Y-97750000D02*
X206250000Y-97250000D01*
X206250000Y-97250000D02*
X206250000Y-93750000D01*
X211000000Y-102500000D02*
X206250000Y-97750000D01*
X212750000Y-105985000D02*
X211000000Y-104235000D01*
%TO.N,TP*%
X162750000Y-133500000D02*
X161750000Y-134500000D01*
X161750000Y-134500000D02*
X161750000Y-144725000D01*
X163250000Y-133500000D02*
X162750000Y-133500000D01*
%TO.N,~{safe}*%
X162000000Y-131750000D02*
X159250000Y-134500000D01*
X163250000Y-131750000D02*
X162000000Y-131750000D01*
X159250000Y-134500000D02*
X159250000Y-144725000D01*
%TO.N,~{reset}*%
X156750000Y-134500000D02*
X156750000Y-144725000D01*
X154000000Y-131750000D02*
X156750000Y-134500000D01*
X153250000Y-131750000D02*
X154000000Y-131750000D01*
%TO.N,EXTINT*%
X154250000Y-134500000D02*
X154250000Y-144725000D01*
X153250000Y-133500000D02*
X154250000Y-134500000D01*
%TO.N,BQ_INT_N*%
X187500000Y-120940448D02*
X187500000Y-121422000D01*
X200250000Y-124172000D02*
X201172000Y-123250000D01*
X187250000Y-120690448D02*
X187500000Y-120940448D01*
X196575000Y-88500000D02*
X197075000Y-88000000D01*
X201172000Y-123250000D02*
X203250000Y-123250000D01*
X210500000Y-92000000D02*
X210500000Y-97210000D01*
X197075000Y-88000000D02*
X209000000Y-88000000D01*
X209750000Y-91250000D02*
X210500000Y-92000000D01*
X190250000Y-124172000D02*
X200250000Y-124172000D01*
X209750000Y-88750000D02*
X209750000Y-91250000D01*
X187500000Y-121422000D02*
X190250000Y-124172000D01*
X209000000Y-88000000D02*
X209750000Y-88750000D01*
X210500000Y-97210000D02*
X212750000Y-99460000D01*
%TO.N,BQ_CE_N*%
X209422000Y-91385862D02*
X209422000Y-90172000D01*
X205250000Y-124750000D02*
X206000000Y-124000000D01*
X210000000Y-91963862D02*
X209422000Y-91385862D01*
X188500000Y-125250000D02*
X202750000Y-125250000D01*
X212750000Y-102000000D02*
X210000000Y-99250000D01*
X203250000Y-124750000D02*
X205250000Y-124750000D01*
X209422000Y-90172000D02*
X209000000Y-89750000D01*
X202750000Y-125250000D02*
X203250000Y-124750000D01*
X210000000Y-99250000D02*
X210000000Y-91963862D01*
%TO.N,RFM_RESET*%
X171750000Y-92500000D02*
X169250000Y-95000000D01*
X188750000Y-93500000D02*
X187750000Y-92500000D01*
X154000000Y-95000000D02*
X153000000Y-94000000D01*
X187750000Y-92500000D02*
X171750000Y-92500000D01*
X169250000Y-95000000D02*
X168000000Y-95000000D01*
X168000000Y-95000000D02*
X154000000Y-95000000D01*
%TO.N,Net-(U5-ACDRV2)*%
X194500000Y-127250000D02*
X188650000Y-127250000D01*
X188650000Y-127250000D02*
X188500000Y-127100000D01*
X188500000Y-127100000D02*
X188375000Y-127100000D01*
%TO.N,Net-(U5-TS)*%
X191250000Y-119500000D02*
X199500000Y-119500000D01*
X189500000Y-122500000D02*
X191750000Y-122500000D01*
X189250000Y-122250000D02*
X189500000Y-122500000D01*
%TO.N,Net-(U5-QON_N)*%
X189250000Y-125750000D02*
X197750000Y-125750000D01*
%TO.N,RFM_DIO0*%
X177250000Y-110500000D02*
X164750000Y-110500000D01*
X185250000Y-102500000D02*
X177250000Y-110500000D01*
X204500000Y-102500000D02*
X185250000Y-102500000D01*
%TD*%
%TA.AperFunction,Conductor*%
%TO.N,GND*%
G36*
X179943039Y-96269685D02*
G01*
X179988794Y-96322489D01*
X180000000Y-96374000D01*
X180000000Y-104126000D01*
X179980315Y-104193039D01*
X179927511Y-104238794D01*
X179876000Y-104250000D01*
X179624000Y-104250000D01*
X179556961Y-104230315D01*
X179511206Y-104177511D01*
X179500000Y-104126000D01*
X179500000Y-102000000D01*
X177874000Y-102000000D01*
X177806961Y-101980315D01*
X177761206Y-101927511D01*
X177750000Y-101876000D01*
X177750000Y-100750000D01*
X176624000Y-100750000D01*
X176556961Y-100730315D01*
X176511206Y-100677511D01*
X176500000Y-100626000D01*
X176500000Y-96374000D01*
X176519685Y-96306961D01*
X176572489Y-96261206D01*
X176624000Y-96250000D01*
X179876000Y-96250000D01*
X179943039Y-96269685D01*
G37*
%TD.AperFunction*%
%TD*%
M02*
