M48
; DRILL file {KiCad 9.0.1} date 2025-10-20T03:33:51+0200
; FORMAT={-:-/ absolute / metric / decimal}
; #@! TF.CreationDate,2025-10-20T03:33:51+02:00
; #@! TF.GenerationSoftware,Kicad,Pcbnew,9.0.1
; #@! TF.FileFunction,Plated,1,2,PTH
FMAT,2
METRIC
; #@! TA.AperFunction,Plated,PTH,ComponentDrill
T1C0.200
; #@! TA.AperFunction,Plated,PTH,ViaDrill
T2C0.250
; #@! TA.AperFunction,Plated,PTH,ViaDrill
T3C0.300
; #@! TA.AperFunction,Plated,PTH,ComponentDrill
T4C0.600
; #@! TA.AperFunction,Plated,PTH,ComponentDrill
T5C0.700
; #@! TA.AperFunction,Plated,PTH,ComponentDrill
T6C0.950
; #@! TA.AperFunction,Plated,PTH,ComponentDrill
T7C1.000
; #@! TA.AperFunction,Plated,PTH,ComponentDrill
T8C1.300
; #@! TA.AperFunction,Plated,PTH,ComponentDrill
T9C1.500
%
G90
G05
T1
X198.8Y-90.25
X198.8Y-91.35
X199.35Y-89.7
X199.35Y-90.8
X199.35Y-91.9
X199.9Y-90.25
X199.9Y-91.35
X200.45Y-89.7
X200.45Y-90.8
X200.45Y-91.9
X201.0Y-90.25
X201.0Y-91.35
T2
X184.25Y-115.25
X185.056Y-128.106
X185.5Y-128.75
X186.15Y-128.25
X186.75Y-118.75
X186.75Y-129.75
X187.25Y-120.69
X187.5Y-128.0
X188.25Y-123.75
X188.375Y-127.1
X188.5Y-124.5
X188.5Y-125.25
X188.5Y-141.75
X188.75Y-135.5
X189.0Y-128.75
X189.25Y-122.25
X189.25Y-125.75
X189.5Y-120.5
X190.5Y-126.45
X190.75Y-114.25
X190.75Y-141.75
X191.25Y-119.5
X191.5Y-135.5
X192.0Y-128.0
X193.651Y-126.45
X194.5Y-127.25
X196.0Y-141.75
X196.5Y-120.5
X196.875Y-131.875
X197.75Y-125.75
X199.5Y-119.5
X201.25Y-124.0
X202.312Y-124.438
X203.25Y-123.25
X203.25Y-124.75
X204.0Y-130.0
X204.25Y-127.5
X204.75Y-135.5
X206.0Y-124.0
T3
X147.25Y-91.75
X151.0Y-104.5
X153.0Y-94.0
X153.1Y-126.35
X153.25Y-129.75
X153.25Y-131.75
X153.25Y-133.5
X157.0Y-104.75
X163.25Y-131.75
X163.25Y-133.5
X164.75Y-91.75
X164.75Y-110.5
X167.5Y-111.75
X168.25Y-112.5
X171.75Y-105.0
X175.0Y-84.75
X176.5Y-91.75
X177.75Y-100.75
X178.25Y-96.75
X178.25Y-97.75
X178.25Y-98.75
X178.25Y-99.75
X178.5Y-100.75
X178.5Y-123.0
X178.5Y-123.65
X178.5Y-127.25
X178.5Y-127.9
X179.75Y-104.25
X180.25Y-84.725
X182.0Y-103.75
X183.625Y-129.125
X184.95Y-124.45
X184.95Y-126.524
X185.856Y-122.761
X186.45Y-124.45
X186.45Y-126.45
X188.75Y-87.75
X188.75Y-89.25
X188.75Y-90.5
X188.75Y-92.0
X188.75Y-93.5
X190.0Y-105.25
X191.75Y-84.5
X197.75Y-105.25
X202.0Y-104.0
X202.5Y-103.25
X204.5Y-102.5
X205.5Y-95.25
X206.25Y-93.75
X207.75Y-102.0
X209.0Y-85.25
X209.0Y-86.25
X209.0Y-88.0
X209.0Y-89.75
X212.5Y-116.0
T5
X191.75Y-122.5
X193.65Y-122.5
T6
X146.5Y-127.35
X146.5Y-129.85
X146.5Y-132.35
X146.5Y-134.85
X154.25Y-144.725
X156.75Y-144.725
X159.25Y-144.725
X161.75Y-144.725
T7
X163.63Y-87.25
X166.17Y-87.25
X168.71Y-87.25
X171.25Y-87.25
X175.96Y-94.5
X178.5Y-94.5
X181.04Y-94.5
X210.725Y-124.75
X210.725Y-127.25
X212.75Y-92.985
X212.75Y-95.525
X212.75Y-99.46
X212.75Y-102.0
X212.75Y-105.985
X212.75Y-108.525
T8
X210.25Y-133.5
X210.25Y-138.5
T9
X142.46Y-115.71
X142.46Y-120.79
X145.0Y-118.25
X147.54Y-115.71
X147.54Y-120.79
T4
X209.595Y-111.68G85X210.695Y-111.68
G05
X209.595Y-120.32G85X210.695Y-120.32
G05
X213.925Y-111.68G85X214.725Y-111.68
G05
X213.925Y-120.32G85X214.725Y-120.32
G05
M30
